<?xml version="1.0" encoding="UTF-8"?>
<svg width="230px" height="23px" viewBox="0 0 230 23" version="1.1" xmlns="http://www.w3.org/2000/svg" xmlns:xlink="http://www.w3.org/1999/xlink">
    <!-- Generator: Sketch 57.1 (83088) - https://sketch.com -->
    <title>EuroMillions - Left-Aligned - ColouredSVG</title>
    <desc>Created with Sketch.</desc>
    <g id="EuroMillions---Left-Aligned---Coloured" stroke="none" stroke-width="1" fill="none" fill-rule="evenodd">
        <polygon id="Path" fill="#000080" fill-rule="nonzero" points="0.948000072 0.656 16.3080001 0.656 16.3080001 5.552 6.61200007 5.552 6.61200007 8.848 14.5800001 8.848 14.5800001 13.456 6.61200007 13.456 6.61200007 17.104 16.9800001 17.104 16.9800001 22 0.948000072 22"></polygon>
        <path d="M18.9960001,0.656 L24.6600001,0.656 L24.6600001,13.168 C24.6600001,14.3413392 24.9319973,15.3013296 25.4760001,16.048 C26.0200028,16.7946704 26.9213271,17.168 28.1800001,17.168 C29.438673,17.168 30.3346641,16.7893371 30.8680001,16.032 C31.4013361,15.2746629 31.6680001,14.3200058 31.6680001,13.168 L31.6680001,0.656 L37.3960001,0.656 L37.3960001,13.68 C37.3960001,15.0453402 37.1720023,16.2773278 36.7240001,17.376 C36.2759978,18.4746722 35.6413375,19.4079962 34.8200001,20.176 C33.9986626,20.9440038 33.0280057,21.5306646 31.9080001,21.936 C30.7879945,22.3413354 29.5560068,22.544 28.2120001,22.544 C26.8679933,22.544 25.6306724,22.3413354 24.5000001,21.936 C23.3693277,21.5306646 22.3933375,20.9493371 21.5720001,20.192 C20.7506626,19.4346629 20.1160023,18.5066722 19.6680001,17.408 C19.2199978,16.3093278 18.9960001,15.0666736 18.9960001,13.68 L18.9960001,0.656 Z" id="Path" fill="#000080" fill-rule="nonzero"></path>
        <path d="M49.14,0.656 C50.2920058,0.656 51.3319954,0.80533184 52.26,1.104 C53.1880047,1.40266816 53.9826634,1.8453304 54.644,2.432 C55.3053367,3.0186696 55.8173316,3.74932896 56.18,4.624 C56.5426685,5.49867104 56.724,6.51199424 56.724,7.664 C56.724,9.07200704 56.4146698,10.2933282 55.796,11.328 C55.1773303,12.3626718 54.3560052,13.1893302 53.332,13.808 L57.908,22 L51.828,22 L48.212,14.736 L45.844,14.736 L45.844,22 L40.308,22 L40.308,0.656 L49.14,0.656 Z M48.564,5.136 L45.844,5.136 L45.844,10.288 L48.596,10.288 C49.3426704,10.288 49.9506644,10.058669 50.42,9.6 C50.8893357,9.14133104 51.124,8.52800384 51.124,7.76 C51.124,6.94932928 50.9000023,6.30933568 50.452,5.84 C50.0039978,5.37066432 49.3746708,5.136 48.564,5.136 Z" id="Combined-Shape" fill="#000080" fill-rule="nonzero"></path>
        <path d="M69.652,0.08 C71.252008,0.08 72.7346599,0.35733056 74.1,0.912 C75.4653402,1.46666944 76.6386618,2.23999504 77.62,3.232 C78.6013383,4.22400496 79.3693306,5.40799312 79.924,6.784 C80.4786695,8.16000688 80.756,9.65865856 80.756,11.28 C80.756,12.9013414 80.4786695,14.3999931 79.924,15.776 C79.3693306,17.1520069 78.6013383,18.335995 77.62,19.328 C76.6386618,20.320005 75.4653402,21.0986638 74.1,21.664 C72.7346599,22.2293362 71.252008,22.512 69.652,22.512 C68.051992,22.512 66.5746735,22.2293362 65.22,21.664 C63.8653266,21.0986638 62.692005,20.320005 61.7,19.328 C60.7079951,18.335995 59.9346695,17.1520069 59.38,15.776 C58.8253306,14.3999931 58.548,12.9013414 58.548,11.28 C58.548,9.65865856 58.8253306,8.16000688 59.38,6.784 C59.9346695,5.40799312 60.7079951,4.22400496 61.7,3.232 C62.692005,2.23999504 63.8653266,1.46666944 65.22,0.912 C66.5746735,0.35733056 68.051992,0.08 69.652,0.08 Z M69.652,5.36 C68.8199959,5.36 68.07867,5.51466512 67.428,5.824 C66.7773301,6.13333488 66.2280023,6.554664 65.78,7.088 C65.3319978,7.621336 64.9906679,8.25066304 64.756,8.976 C64.5213322,9.70133696 64.404,10.4693293 64.404,11.28 C64.404,12.0906707 64.5213322,12.858663 64.756,13.584 C64.9906679,14.309337 65.3319978,14.938664 65.78,15.472 C66.2280023,16.005336 66.7773301,16.4266651 67.428,16.736 C68.07867,17.0453349 68.8199959,17.2 69.652,17.2 C70.4840042,17.2 71.2253301,17.0453349 71.876,16.736 C72.52667,16.4266651 73.0759978,16.005336 73.524,15.472 C73.9720023,14.938664 74.3133322,14.309337 74.548,13.584 C74.7826679,12.858663 74.9,12.0906707 74.9,11.28 C74.9,10.4693293 74.7826679,9.70133696 74.548,8.976 C74.3133322,8.25066304 73.9720023,7.621336 73.524,7.088 C73.0759978,6.554664 72.52667,6.13333488 71.876,5.824 C71.2253301,5.51466512 70.4840042,5.36 69.652,5.36 Z" id="Combined-Shape" fill="#000080" fill-rule="nonzero"></path>
        <polygon id="Path" fill="#000080" fill-rule="nonzero" points="83.508 0.656 88.916 0.656 94.1 9.968 99.188 0.656 104.628 0.656 105.62 22 99.892 22 99.38 9.488 95.636 16.784 92.532 16.784 88.372 9.488 87.956 22 82.516 22"></polygon>
        <polygon id="Path" fill="#000080" fill-rule="nonzero" points="108.212 0.656 113.876 0.656 113.876 22 108.212 22"></polygon>
        <polygon id="Path" fill="#000080" fill-rule="nonzero" points="116.916 0.656 122.58 0.656 122.58 17.008 132.468 17.008 132.468 22 116.916 22"></polygon>
        <polygon id="Path" fill="#000080" fill-rule="nonzero" points="134.228 0.656 139.892 0.656 139.892 17.008 149.78 17.008 149.78 22 134.228 22"></polygon>
        <polygon id="Path" fill="#000080" fill-rule="nonzero" points="151.54 0.656 157.204 0.656 157.204 22 151.54 22"></polygon>
        <path d="M170.516,0.08 C172.116008,0.08 173.59866,0.35733056 174.964,0.912 C176.32934,1.46666944 177.502662,2.23999504 178.484,3.232 C179.465338,4.22400496 180.233331,5.40799312 180.788,6.784 C181.342669,8.16000688 181.62,9.65865856 181.62,11.28 C181.62,12.9013414 181.342669,14.3999931 180.788,15.776 C180.233331,17.1520069 179.465338,18.335995 178.484,19.328 C177.502662,20.320005 176.32934,21.0986638 174.964,21.664 C173.59866,22.2293362 172.116008,22.512 170.516,22.512 C168.915992,22.512 167.438673,22.2293362 166.084,21.664 C164.729327,21.0986638 163.556005,20.320005 162.564,19.328 C161.571995,18.335995 160.798669,17.1520069 160.244,15.776 C159.689331,14.3999931 159.412,12.9013414 159.412,11.28 C159.412,9.65865856 159.689331,8.16000688 160.244,6.784 C160.798669,5.40799312 161.571995,4.22400496 162.564,3.232 C163.556005,2.23999504 164.729327,1.46666944 166.084,0.912 C167.438673,0.35733056 168.915992,0.08 170.516,0.08 Z M170.516,5.36 C169.683996,5.36 168.94267,5.51466512 168.292,5.824 C167.64133,6.13333488 167.092002,6.554664 166.644,7.088 C166.195998,7.621336 165.854668,8.25066304 165.62,8.976 C165.385332,9.70133696 165.268,10.4693293 165.268,11.28 C165.268,12.0906707 165.385332,12.858663 165.62,13.584 C165.854668,14.309337 166.195998,14.938664 166.644,15.472 C167.092002,16.005336 167.64133,16.4266651 168.292,16.736 C168.94267,17.0453349 169.683996,17.2 170.516,17.2 C171.348004,17.2 172.08933,17.0453349 172.74,16.736 C173.39067,16.4266651 173.939998,16.005336 174.388,15.472 C174.836002,14.938664 175.177332,14.309337 175.412,13.584 C175.646668,12.858663 175.764,12.0906707 175.764,11.28 C175.764,10.4693293 175.646668,9.70133696 175.412,8.976 C175.177332,8.25066304 174.836002,7.621336 174.388,7.088 C173.939998,6.554664 173.39067,6.13333488 172.74,5.824 C172.08933,5.51466512 171.348004,5.36 170.516,5.36 Z" id="Combined-Shape" fill="#000080" fill-rule="nonzero"></path>
        <polygon id="Path" fill="#000080" fill-rule="nonzero" points="183.828 0.656 188.98 0.656 197.172 12.56 197.172 0.656 202.772 0.656 202.772 22 197.94 22 189.428 9.744 189.428 22 183.828 22"></polygon>
        <path d="M207.476,15.248 C208.073336,15.8453363 208.851995,16.3893309 209.812,16.88 C210.772005,17.3706691 211.827994,17.616 212.98,17.616 C213.257335,17.616 213.545332,17.5893336 213.844,17.536 C214.142668,17.4826664 214.409332,17.3920006 214.644,17.264 C214.878668,17.1359994 215.070666,16.9653344 215.22,16.752 C215.369334,16.5386656 215.444,16.261335 215.444,15.92 C215.444,15.3653306 215.161336,14.9066685 214.596,14.544 C214.030664,14.1813315 213.204005,13.8186685 212.116,13.456 L210.932,13.072 C210.270663,12.8586656 209.604003,12.581335 208.932,12.24 C208.259997,11.898665 207.657336,11.4880024 207.124,11.008 C206.590664,10.5279976 206.158668,9.96266992 205.828,9.312 C205.497332,8.66133008 205.332,7.89867104 205.332,7.024 C205.332,6.04266176 205.513331,5.13067088 205.876,4.288 C206.238668,3.44532912 206.766663,2.70933648 207.46,2.08 C208.153337,1.45066352 209.011995,0.96000176 210.036,0.608 C211.060005,0.25599824 212.243993,0.08 213.588,0.08 C214.633339,0.08 215.582662,0.17599904 216.436,0.368 C217.289338,0.56000096 218.035997,0.79466528 218.676,1.072 C219.316003,1.34933472 219.859998,1.6479984 220.308,1.968 C220.756002,2.2880016 221.097332,2.57599872 221.332,2.832 L218.452,6.48 C217.70533,5.92533056 216.926671,5.47200176 216.116,5.12 C215.305329,4.76799824 214.473338,4.592 213.62,4.592 C213.342665,4.592 213.065335,4.62399968 212.788,4.688 C212.510665,4.75200032 212.260001,4.84799936 212.036,4.976 C211.811999,5.10400064 211.630667,5.26933232 211.492,5.472 C211.353333,5.67466768 211.284,5.92533184 211.284,6.224 C211.284,6.5440016 211.363999,6.82133216 211.524,7.056 C211.684001,7.29066784 211.902665,7.49333248 212.18,7.664 C212.457335,7.83466752 212.793331,7.98933264 213.188,8.128 C213.582669,8.26666736 214.003998,8.41066592 214.452,8.56 L215.476,8.88 C216.201337,9.11466784 216.93733,9.38666512 217.684,9.696 C218.43067,10.0053349 219.102664,10.4213307 219.7,10.944 C220.297336,11.4666693 220.787998,12.1173294 221.172,12.896 C221.556002,13.6746706 221.748,14.6293277 221.748,15.76 C221.748,16.7413382 221.518669,17.6479958 221.06,18.48 C220.601331,19.3120042 219.982671,20.0266637 219.204,20.624 C218.425329,21.2213363 217.508005,21.6853317 216.452,22.016 C215.395995,22.3466683 214.270673,22.512 213.076,22.512 C210.942656,22.512 209.156007,22.2293362 207.716,21.664 C206.275993,21.0986638 205.054672,20.3360048 204.052,19.376 L207.476,15.248 Z" id="Path" fill="#000080" fill-rule="nonzero"></path>
        <path d="M226.5,7.10542736e-15 C226.860054,7.10542736e-15 227.192935,0.0583791209 227.498641,0.182005495 C227.804348,0.302541209 228.069293,0.474244505 228.293478,0.690590659 C228.517663,0.910027473 228.690897,1.17101648 228.813179,1.48008242 C228.938859,1.78571429 229,2.12568681 229,2.50343407 C229,2.87431319 228.938859,3.21085165 228.813179,3.51991758 C228.690897,3.82554945 228.517663,4.08653846 228.293478,4.30631868 C228.069293,4.52266484 227.804348,4.69436813 227.498641,4.81456044 C227.192935,4.93853022 226.860054,5 226.5,5 C226.143342,5 225.810462,4.93853022 225.504755,4.81456044 C225.195652,4.69436813 224.930707,4.52266484 224.706522,4.30631868 C224.485734,4.08653846 224.3125,3.82554945 224.186821,3.51991758 C224.064538,3.21085165 224,2.87431319 224,2.50343407 C224,2.12568681 224.064538,1.78571429 224.186821,1.48008242 C224.3125,1.17101648 224.485734,0.910027473 224.706522,0.690590659 C224.930707,0.474244505 225.195652,0.302541209 225.504755,0.182005495 C225.810462,0.0583791209 226.143342,7.10542736e-15 226.5,7.10542736e-15 Z M226.5,0.718063187 C226.245245,0.718063187 226.014266,0.762706044 225.803668,0.848557692 C225.596467,0.930631868 225.41644,1.05082418 225.263587,1.20879121 C225.107337,1.36366758 224.988451,1.5521978 224.906929,1.77197802 C224.822011,1.99519231 224.78125,2.23901099 224.78125,2.50343407 C224.78125,2.77129121 224.822011,3.01167582 224.906929,3.23145604 C224.988451,3.4478022 225.107337,3.63701923 225.263587,3.79498626 C225.41644,3.95604396 225.596467,4.07623626 225.803668,4.16208791 C226.014266,4.24793956 226.245245,4.28914835 226.5,4.28914835 C226.751359,4.28914835 226.97894,4.24793956 227.192935,4.16208791 C227.403533,4.07623626 227.586957,3.95604396 227.73981,3.79498626 C227.892663,3.63701923 228.014946,3.4478022 228.103261,3.23145604 C228.188179,3.01167582 228.232337,2.77129121 228.232337,2.50343407 C228.232337,2.23901099 228.188179,1.99519231 228.103261,1.77197802 C228.014946,1.5521978 227.892663,1.36366758 227.73981,1.20879121 C227.586957,1.05082418 227.403533,0.930631868 227.192935,0.848557692 C226.97894,0.762706044 226.751359,0.718063187 226.5,0.718063187 Z" id="Combined-Shape" fill="#000080"></path>
        <path d="M226.632473,1.19505495 C226.873641,1.19505495 227.070652,1.26407967 227.223505,1.4010989 C227.379755,1.53846154 227.454484,1.72081044 227.454484,1.95089286 C227.454484,2.13633242 227.413723,2.29052198 227.328804,2.41414835 C227.243886,2.54120879 227.138587,2.63392857 227.006114,2.6926511 L227.006114,2.6926511 L227.597147,3.62328297 L226.927989,3.62328297 L226.401495,2.78159341 L226.228261,2.78159341 L226.228261,3.62328297 L225.633832,3.62328297 L225.633832,1.19505495 Z M226.567935,1.68269231 L226.228261,1.68269231 L226.228261,2.30425824 L226.469429,2.30425824 C226.615489,2.30425824 226.720788,2.28365385 226.785326,2.23901099 C226.853261,2.19436813 226.883832,2.11195055 226.883832,1.99519231 C226.883832,1.88186813 226.856658,1.80288462 226.798913,1.75480769 C226.737772,1.70707418 226.663043,1.68269231 226.567935,1.68269231 L226.567935,1.68269231 Z" id="Combined-Shape" fill="#000080"></path>
    </g>
</svg>