<svg width="127" height="55" viewBox="0 0 127 55" fill="none" xmlns="http://www.w3.org/2000/svg">
<path d="M121.265 1.1707C121.02 1.15632 120.774 1.15632 120.528 1.1707C120.187 0.766962 119.753 0.452067 119.263 0.253045C118.87 0.118022 118.455 0.0567452 118.039 0.0722946C117.563 0.0703383 117.091 0.175521 116.661 0.380076C116.23 0.584631 115.851 0.883334 115.551 1.25413L113.966 3.15896C113.797 3.37189 113.587 3.54826 113.348 3.67734C113.109 3.80641 112.846 3.8855 112.575 3.90977C111.769 3.90977 95.7098 3.79854 94.5001 3.90977C93.325 3.90641 92.1648 4.17294 91.1089 4.68881C90.0531 5.20469 89.1298 5.95613 88.4102 6.88521C87.4711 8.09134 86.8884 9.53623 86.7279 11.0564C86.3385 14.0318 86.0188 17.0351 85.7268 20.0244C85.2779 19.7435 84.7672 19.5765 84.2391 19.5378H72.4207C71.9489 19.5374 71.4827 19.6406 71.0551 19.84C70.6275 20.0394 70.2489 20.3301 69.9458 20.6918C69.6402 20.3435 69.2639 20.0641 68.842 19.8723C68.4201 19.6806 67.9622 19.5807 67.4987 19.5795H55.6804C54.9023 19.5817 54.1509 19.8639 53.5637 20.3745C52.9765 20.8851 52.5927 21.59 52.4825 22.3603L52.2601 24.4737C51.6849 24.5717 51.1471 24.8239 50.7039 25.2034C50.2607 25.5829 49.9288 26.0755 49.7434 26.6288C47.0368 24.783 43.8289 23.8124 40.553 23.848C36.0831 23.7912 31.7344 25.3014 28.2619 28.1165C25.2631 30.557 23.2805 34.0266 22.7003 37.8492H21.1709L23.3399 22.3186C23.3972 21.8635 23.3569 21.4015 23.2215 20.9634C23.0862 20.5252 22.859 20.1209 22.555 19.7775C22.2511 19.434 21.8774 19.1594 21.4589 18.9718C21.0404 18.7842 20.5867 18.688 20.1281 18.6896H8.11514C7.33699 18.6918 6.58563 18.974 5.99843 19.4846C5.41123 19.9952 5.02744 20.7001 4.91724 21.4704L0.815584 50.4045C0.758404 50.8583 0.798406 51.3191 0.932937 51.7563C1.06747 52.1936 1.29345 52.5971 1.59588 52.9403C1.89831 53.2835 2.27028 53.5585 2.6871 53.7469C3.10391 53.9354 3.55605 54.033 4.01348 54.0334H25.6758C26.2951 54.035 26.902 53.8591 27.4244 53.5264C27.9468 53.1937 28.3629 52.7183 28.6234 52.1564C31.2771 53.7697 34.3333 54.5989 37.4385 54.5478C42.2329 54.5746 46.8644 52.8092 50.4247 49.598C50.7298 50.1953 51.103 50.7552 51.537 51.2665C53.428 53.4355 56.3339 54.5478 60.1853 54.5478C63.0131 54.5538 65.8161 54.0206 68.4442 52.9767L69.0421 52.7264C69.2147 52.6444 69.3818 52.5515 69.5426 52.4483C71.7042 53.9443 74.3003 54.6826 76.9256 54.5478C79.749 54.5554 82.5478 54.0221 85.1706 52.9767L85.7963 52.7125C86.3641 52.4478 86.846 52.0286 87.1867 51.5029C90.0093 53.5576 93.4291 54.6275 96.9194 54.5478C105.623 54.5478 114.883 48.6943 114.883 37.8631C114.916 35.9051 114.518 33.9637 113.718 32.1763C112.918 30.3888 111.735 28.7988 110.253 27.5186H111.519C112.707 27.5107 113.879 27.2383 114.949 26.7213C116.019 26.2042 116.961 25.4554 117.706 24.5293C118.645 23.3231 119.228 21.8783 119.388 20.3581C119.805 17.1602 120.139 13.9345 120.459 10.7644C120.706 10.8127 120.957 10.8406 121.21 10.8478C122.5 10.8478 123.738 10.3351 124.651 9.4225C125.563 8.50988 126.076 7.2721 126.076 5.98146C126.076 4.69082 125.563 3.45304 124.651 2.54041C123.738 1.62779 122.5 1.11509 121.21 1.11509L121.265 1.1707Z" fill="white"/>
<path d="M100.062 27.3657C96.3948 27.3118 92.8241 28.5413 89.9677 30.8417C88.5285 32.0343 87.3772 33.5365 86.5996 35.2361C85.822 36.9358 85.4381 38.7891 85.4767 40.6578C85.4537 41.0793 85.4537 41.5016 85.4767 41.9231C85.4816 41.9795 85.466 42.0359 85.4328 42.0818C85.3997 42.1277 85.3511 42.1602 85.2959 42.1733L83.8221 42.4792C83.3651 42.5759 82.8989 42.6225 82.4317 42.6183C82.2467 42.6342 82.0602 42.6129 81.8835 42.5556C81.7068 42.4983 81.5434 42.4061 81.4029 42.2846C81.3109 42.1525 81.2494 42.0017 81.223 41.843C81.1965 41.6843 81.2057 41.5216 81.2499 41.3669L81.9034 36.7369C81.9102 36.6829 81.9366 36.6332 81.9776 36.5973C82.0186 36.5614 82.0714 36.5418 82.1259 36.5423H84.6008L85.9494 27.8801H83.5302C83.4675 27.88 83.4075 27.855 83.3633 27.8106C83.3394 27.7527 83.3394 27.6877 83.3633 27.6299L84.0029 23.0277H72.6156L71.976 27.6855C71.9726 27.7148 71.9633 27.7431 71.9489 27.7688C71.9344 27.7945 71.9149 27.8171 71.8916 27.8352C71.8683 27.8533 71.8417 27.8666 71.8132 27.8743C71.7847 27.882 71.755 27.884 71.7257 27.8801H66.7898C66.7275 27.8785 66.668 27.8538 66.623 27.8106C66.6048 27.7517 66.6048 27.6887 66.623 27.6299L67.2626 23.0277H55.8753L55.2357 27.6855C55.2298 27.7351 55.2074 27.7812 55.1721 27.8165C55.1368 27.8518 55.0906 27.8742 55.041 27.8801H52.9555L51.9683 34.8321C51.9683 34.8911 51.9448 34.9477 51.9031 34.9894C51.8614 35.0311 51.8048 35.0545 51.7458 35.0545C51.6868 35.0545 51.6302 35.0311 51.5885 34.9894C51.5468 34.9477 51.5233 34.8911 51.5233 34.8321C50.2164 30.2438 45.9618 27.3935 40.5114 27.3935C36.8487 27.3405 33.2827 28.5701 30.4311 30.8695C28.9763 32.0482 27.8077 33.5414 27.013 35.2368C26.2183 36.9321 25.8182 38.7856 25.8428 40.6578C25.8359 40.7736 25.8359 40.8897 25.8428 41.0054C25.8412 41.0678 25.8165 41.1273 25.7733 41.1723C25.7195 41.1925 25.6602 41.1925 25.6065 41.1723H17.3753C17.3428 41.1734 17.3104 41.1664 17.2813 41.1518C17.2521 41.1373 17.2271 41.1156 17.2085 41.0888C17.1958 41.0604 17.1893 41.0296 17.1893 40.9985C17.1893 40.9673 17.1958 40.9365 17.2085 40.9081L19.8641 21.9571H8.30999L4.30566 50.5713H25.4674L26.2738 44.9263C26.2819 44.8776 26.305 44.8326 26.3399 44.7977C26.3748 44.7628 26.4198 44.7397 26.4685 44.7317C26.5194 44.7265 26.5707 44.737 26.6155 44.7619C26.6602 44.7867 26.6963 44.8247 26.7188 44.8707C28.3455 48.7638 32.2803 51.0858 37.4109 51.0858C44.4324 51.0858 51.9127 46.4418 51.9127 37.8492C51.9344 37.502 51.9344 37.1537 51.9127 36.8064C51.9088 36.7729 51.9131 36.739 51.9252 36.7075C51.9373 36.676 51.9568 36.648 51.9822 36.6257C52.0014 36.6005 52.027 36.5808 52.0563 36.5686C52.0856 36.5564 52.1176 36.5521 52.149 36.5562H53.6506C53.6852 36.5551 53.7195 36.5621 53.7509 36.5765C53.7822 36.591 53.8098 36.6126 53.8314 36.6396C53.8515 36.6982 53.8515 36.7618 53.8314 36.8203L52.8581 43.5776C52.6439 44.5132 52.6362 45.4843 52.8355 46.4232C53.0348 47.362 53.4363 48.2462 54.0121 49.0141C55.2357 50.4045 57.21 51.0997 60.0464 51.0997C62.4249 51.115 64.7845 50.6761 66.9984 49.8066L67.4572 49.6119L68.4861 42.2429L67.0957 42.4931C66.6388 42.5907 66.1725 42.6373 65.7053 42.6322C65.5202 42.6481 65.3338 42.6268 65.1571 42.5695C64.9804 42.5122 64.817 42.42 64.6764 42.2985C64.5845 42.1665 64.523 42.0156 64.4966 41.8569C64.4701 41.6982 64.4793 41.5355 64.5235 41.3808L65.177 36.7508C65.1838 36.6968 65.2102 36.6471 65.2512 36.6112C65.2922 36.5753 65.345 36.5557 65.3995 36.5562H70.3492C70.3835 36.557 70.4172 36.5648 70.4483 36.5791C70.4794 36.5935 70.5072 36.6141 70.53 36.6396C70.5436 36.6678 70.5506 36.6987 70.5506 36.73C70.5506 36.7613 70.5436 36.7921 70.53 36.8203L69.5706 43.5776C69.3564 44.5132 69.3487 45.4843 69.548 46.4232C69.7473 47.362 70.1488 48.2462 70.7246 49.0141C71.9343 50.4045 73.9086 51.0997 76.7589 51.0997C79.1374 51.115 81.497 50.6761 83.7109 49.8066L84.1697 49.6119L85.143 43.1744C85.143 42.8964 85.2403 42.8685 85.435 42.8407C85.6296 42.8129 85.6714 42.8407 85.727 43.1049C86.8115 48.013 91.08 51.044 96.9752 51.044C104.011 51.044 111.477 46.4001 111.477 37.8075C111.477 31.6759 106.777 27.3657 100.062 27.3657ZM38.3563 42.0343C37.2718 42.0343 36.8964 40.8386 36.8964 39.8236C36.8964 38.0161 38.0505 36.431 39.3852 36.431C40.4558 36.431 40.7756 37.6129 40.7756 38.6418C40.873 40.3936 39.7467 42.0343 38.3563 42.0343ZM97.9207 42.0343C96.8501 42.0343 96.4608 40.8386 96.4608 39.8236C96.4608 38.0161 97.6287 36.431 98.9496 36.431C100.02 36.431 100.34 37.6129 100.34 38.6418C100.451 40.3936 99.2833 42.0343 97.9624 42.0343H97.9207Z" fill="#C2D500"/>
<path d="M118.123 3.08945C118.077 3.0742 118.028 3.07265 117.981 3.08499C117.934 3.09733 117.892 3.12304 117.859 3.15897L116.288 5.06381C115.846 5.60853 115.295 6.05453 114.67 6.37304C114.044 6.69156 113.36 6.87551 112.659 6.91303C111.839 6.91303 110.949 6.91303 109.976 6.91303C108.057 6.91303 106.18 6.91303 104.414 6.8157H104.261C102.454 6.8157 100.59 6.73228 98.6996 6.73228C97.1701 6.73228 95.7936 6.73228 94.5284 6.8157C93.81 6.82788 93.1037 7.00318 92.463 7.32836C91.8223 7.65353 91.2639 8.12007 90.8299 8.69273C90.2362 9.46825 89.866 10.3914 89.7593 11.3623C89.2866 14.9495 88.9251 18.6201 88.5636 22.1795V22.3186C88.5636 22.8747 88.4107 23.709 88.3272 24.5988L88.2438 25.3496C88.1604 26.0587 88.0909 26.74 88.0353 27.1849L87.7711 29.2705C87.7656 29.3179 87.7747 29.3659 87.797 29.4081C87.8193 29.4503 87.8539 29.4847 87.8962 29.5069H87.9935C88.025 29.511 88.057 29.5067 88.0863 29.4945C88.1156 29.4823 88.1411 29.4626 88.1604 29.4374L89.6481 27.9357C89.6481 27.9357 93.5273 24.2234 103.872 24.4181H106.958H107.681H111.533C112.273 24.4198 113.005 24.2558 113.673 23.9383C114.342 23.6207 114.932 23.1576 115.398 22.5827C116 21.812 116.371 20.8864 116.469 19.9132C116.941 16.2843 117.317 12.5997 117.678 9.02642L118.012 5.70339L118.262 3.2424C118.253 3.20755 118.236 3.17544 118.212 3.1488C118.187 3.12216 118.157 3.10179 118.123 3.08945Z" fill="#E65300"/>
<path d="M109.975 8.16439C108.043 8.16439 106.152 8.16439 104.317 8.06706C102.481 7.96973 100.618 7.96973 98.755 7.96973C97.2394 7.96973 95.863 7.96973 94.5838 8.06706C94.0453 8.07335 93.5152 8.20175 93.0336 8.44259C92.5519 8.68343 92.1311 9.03043 91.803 9.45745C91.3481 10.0668 91.0648 10.787 90.9827 11.543C90.5099 15.1442 90.1345 18.8426 89.7869 22.402C89.7869 23.0694 89.6062 24.0844 89.495 25.0854C89.495 25.6694 89.3698 26.2395 89.3142 26.7122C90.6212 25.6833 94.8758 23.0555 103.969 23.2223H107.056H111.588C112.149 23.2191 112.703 23.0929 113.209 22.8526C113.716 22.6124 114.164 22.264 114.522 21.8319C114.988 21.229 115.273 20.5055 115.342 19.7463C115.815 16.1174 116.19 12.4468 116.538 8.88739C116.635 8.01145 116.719 7.1355 116.816 6.25955C115.73 7.32454 114.29 7.95299 112.77 8.02535C111.839 8.15048 110.949 8.16439 109.975 8.16439Z" fill="#E65300"/>
<path d="M116.858 5.53656C116.35 6.16296 115.716 6.67591 114.998 7.04232C114.279 7.40873 113.492 7.62046 112.687 7.66385C111.825 7.66385 110.949 7.66385 109.975 7.66385C108.057 7.66385 106.152 7.66385 104.33 7.56653C102.509 7.4692 100.618 7.4692 98.7689 7.4692C97.2395 7.4692 95.863 7.4692 94.5977 7.56653C93.988 7.57499 93.3883 7.72211 92.8438 7.99673C92.2994 8.27135 91.8246 8.66627 91.4555 9.15157C90.943 9.82054 90.6297 10.6205 90.5517 11.4596C90.0651 15.0607 89.7036 18.7592 89.3421 22.3464C89.3421 22.986 89.1613 24.0149 89.0501 25.002C88.9389 25.9892 88.8693 26.6705 88.8137 27.2267V27.8801L89.2725 27.4074C89.2725 27.4074 93.2213 23.4726 104.039 23.6534H107.139H111.672C112.27 23.6478 112.86 23.5161 113.404 23.2669C113.948 23.0178 114.433 22.6567 114.828 22.2073C115.345 21.5399 115.664 20.7398 115.746 19.8993C116.218 16.2565 116.594 12.5858 116.941 9.04034C117.053 7.92803 117.164 6.81572 117.289 5.71731V4.95259L116.858 5.53656ZM111.519 23.3058H106.986H103.899C94.8063 23.1389 90.5517 25.7667 89.2447 26.7956C89.2447 26.3229 89.356 25.7528 89.4255 25.1689C89.5367 24.1678 89.648 23.1528 89.7175 22.4854C90.0651 18.926 90.4405 15.2276 90.9132 11.6265C90.9954 10.8705 91.2786 10.1503 91.7335 9.54088C92.0617 9.11386 92.4824 8.76686 92.9641 8.52602C93.4458 8.28518 93.9758 8.15678 94.5143 8.15049C95.8213 8.15049 97.1978 8.05316 98.6855 8.05316C100.576 8.05316 102.453 8.05316 104.247 8.15049C106.041 8.24782 107.973 8.24782 109.906 8.24782C110.879 8.24782 111.769 8.24782 112.687 8.24782C114.206 8.17546 115.646 7.54701 116.733 6.48202C116.635 7.35797 116.552 8.23391 116.455 9.10986C116.107 12.6693 115.732 16.3399 115.259 19.9688C115.19 20.7279 114.905 21.4515 114.439 22.0544C114.069 22.4593 113.618 22.7805 113.114 22.9964C112.611 23.2122 112.067 23.3177 111.519 23.3058Z" fill="white"/>
<path d="M98.9915 36.4311C97.6011 36.4311 96.5027 38.0161 96.5027 39.8236C96.5027 40.8386 96.892 42.0343 97.9626 42.0343C99.2835 42.0343 100.451 40.4493 100.451 38.6418C100.451 37.6129 100.062 36.4311 98.9915 36.4311ZM97.9626 41.5755C96.9893 41.5755 96.9615 40.0044 96.9615 39.8236C96.9615 38.2525 97.907 36.8899 98.9915 36.8899C100.076 36.8899 99.9926 38.461 99.9926 38.6418C99.9926 40.199 99.0471 41.5755 97.9626 41.5755Z" fill="#3DAE2B"/>
<path d="M39.4268 36.4311C38.0364 36.4311 36.938 38.0161 36.938 39.8236C36.938 40.8386 37.3134 42.0343 38.3979 42.0343C39.7188 42.0343 40.8728 40.4493 40.8728 38.6418C40.8728 37.6129 40.4974 36.4311 39.4268 36.4311ZM38.3562 41.5755C37.3829 41.5755 37.3551 40.0044 37.3551 39.8236C37.3551 38.2525 38.3006 36.8899 39.3851 36.8899C40.4696 36.8899 40.3862 38.461 40.3862 38.6418C40.4279 40.199 39.4685 41.5755 38.3562 41.5755Z" fill="#3DAE2B"/>
<path d="M15.8875 42.4514L18.571 23.2362H9.28318L5.61255 49.4451H24.4941L25.4951 42.4514H15.8875Z" fill="#3DAE2B"/>
<path d="M19.1551 22.7357H8.85235L4.98706 49.9595H24.9392L26.0793 41.937H16.4717L19.1551 22.7357ZM5.61274 49.4451L9.28337 23.2501H18.5712L15.8877 42.4514H25.4953L24.4943 49.4034L5.61274 49.4451Z" fill="white"/>
<path d="M40.4836 28.5058C33.7959 28.5058 27.0247 32.677 27.0247 40.6578C27.0247 46.2194 31.1958 49.9596 37.4109 49.9596C43.8901 49.9596 50.7864 45.7189 50.7864 37.8492C50.7864 32.2599 46.6987 28.5058 40.4836 28.5058ZM38.3563 43.1744C36.7991 43.1744 35.7702 41.784 35.7702 39.8375C35.7702 37.3904 37.4248 35.3187 39.3852 35.3187C40.9286 35.3187 41.9714 36.7091 41.9714 38.6557C42.0131 41.0889 40.3585 43.1744 38.3563 43.1744Z" fill="#3DAE2B"/>
<path d="M48.089 30.5775C45.9314 28.8285 43.2182 27.9109 40.4419 27.9914C36.9082 27.9225 33.4629 29.0988 30.7091 31.3144C29.3363 32.4475 28.2379 33.8768 27.4962 35.4949C26.7546 37.1131 26.3889 38.8782 26.4267 40.6578C26.4267 46.5253 30.7926 50.474 37.3135 50.474C40.8074 50.5178 44.2065 49.3372 46.9211 47.1371C48.2855 46.0098 49.3779 44.5892 50.117 42.981C50.856 41.3729 51.2227 39.6188 51.1896 37.8492C51.2415 36.4835 50.9904 35.1231 50.4543 33.8659C49.9182 32.6086 49.1105 31.4856 48.089 30.5775ZM37.4108 49.9596C31.1958 49.9596 27.0246 46.2194 27.0246 40.6578C27.0246 32.677 33.7958 28.5058 40.4836 28.5058C46.643 28.5058 50.7864 32.2599 50.7864 37.8492C50.7864 45.7189 43.9179 49.9596 37.4108 49.9596Z" fill="white"/>
<path d="M39.427 35.3048C37.4666 35.3048 35.812 37.3765 35.812 39.8236C35.812 41.8257 36.8409 43.1605 38.3981 43.1605C40.3586 43.1605 42.0132 41.0888 42.0132 38.6418C42.0132 36.6396 40.9704 35.3048 39.427 35.3048ZM38.3564 42.6461C36.966 42.6461 36.2708 41.2557 36.2708 39.8653C36.2708 37.6963 37.6612 35.8471 39.3853 35.8471C40.7757 35.8471 41.457 37.2375 41.457 38.6278C41.4987 40.8108 40.0805 42.6461 38.3564 42.6461Z" fill="white"/>
<path d="M65.8028 43.7584C65.4553 43.7787 65.1074 43.7234 64.7834 43.5961C64.4593 43.4689 64.1667 43.2728 63.9258 43.0215C63.7261 42.7703 63.585 42.4776 63.5128 42.1649C63.4406 41.8522 63.4392 41.5273 63.5087 41.214L64.329 35.416H67.3322L68.236 29.0063H65.2467L65.914 24.1539H56.8626L56.1952 29.0063H53.9011L52.9973 35.416H55.2776L54.0818 43.7584C53.9107 44.5342 53.9078 45.3377 54.0732 46.1148C54.2387 46.8919 54.5688 47.6245 55.0412 48.2633C56.0145 49.3895 57.7525 49.9595 60.2134 49.9595C62.3751 49.9656 64.5195 49.5745 66.5397 48.8055L67.2627 43.6193C66.7824 43.717 66.293 43.7636 65.8028 43.7584Z" fill="#3DAE2B"/>
<path d="M67.2627 43.091C66.8053 43.187 66.3396 43.2382 65.8723 43.244C65.5989 43.2638 65.3245 43.2243 65.0677 43.1283C64.811 43.0324 64.578 42.8821 64.3846 42.6878C64.2351 42.4925 64.1302 42.2668 64.0773 42.0266C64.0245 41.7863 64.025 41.5374 64.0787 41.2974L64.7739 35.9305H67.7911L68.8338 28.5058H65.8306L66.498 23.6395H56.4316L55.7642 28.5058H53.47L52.3994 35.9305H54.6936L53.6508 43.6611C53.4505 44.5081 53.4375 45.3886 53.6128 46.2412C53.7881 47.0937 54.1475 47.8977 54.6658 48.597C55.7364 49.8344 57.6134 50.474 60.2273 50.474C62.5061 50.4778 64.7653 50.0533 66.8873 49.2226H67.0263L67.8745 43.0354L67.5269 43.1049L67.2627 43.091ZM60.1578 49.9596C57.6968 49.9596 55.9866 49.3895 54.9855 48.2633C54.5187 47.6167 54.1965 46.8773 54.0405 46.0953C53.8846 45.3132 53.8987 44.5067 54.0818 43.7306L55.2775 35.3883H52.9973L53.901 28.9786H56.1952L56.8626 24.1261H65.914L65.2466 28.9786H68.236L67.3322 35.3883H64.329L63.5086 41.1862C63.4392 41.4995 63.4406 41.8244 63.5128 42.1371C63.5849 42.4498 63.726 42.7425 63.9258 42.9937C64.1667 43.245 64.4593 43.4411 64.7833 43.5683C65.1074 43.6956 65.4552 43.7509 65.8028 43.7306C66.2698 43.7311 66.7356 43.6845 67.1932 43.5916L66.4702 48.7777C64.4561 49.5545 62.3165 49.9551 60.1578 49.9596Z" fill="white"/>
<path d="M82.5429 43.7584C82.1953 43.7787 81.8475 43.7234 81.5234 43.5961C81.1993 43.4689 80.9067 43.2728 80.6658 43.0215C80.4637 42.7714 80.3201 42.4793 80.2455 42.1666C80.1709 41.8538 80.1673 41.5283 80.2348 41.214L81.0551 35.416H83.7247L84.6424 29.0063H81.9728L82.6541 24.1539H73.6026L72.9214 29.0063H70.1406L69.2368 35.416H72.0176L70.8219 43.7584C70.6429 44.5303 70.6309 45.3316 70.7868 46.1085C70.9427 46.8854 71.2627 47.6201 71.7256 48.2633C72.6989 49.3895 74.5064 49.9595 76.9118 49.9595C79.0734 49.9656 81.2178 49.5745 83.2381 48.8055L83.9611 43.6193C83.4942 43.7132 83.0191 43.7598 82.5429 43.7584Z" fill="#3DAE2B"/>
<path d="M81.4585 35.9305H84.2393L85.296 28.5058H82.5569L83.2382 23.6395H73.1162L72.4349 28.5058H69.6541L68.6113 35.9305H71.3921L70.3354 43.6611C70.1351 44.5081 70.1222 45.3886 70.2975 46.2412C70.4728 47.0937 70.8321 47.8977 71.3504 48.597C72.421 49.8344 74.298 50.474 76.912 50.474C79.1907 50.4778 81.4499 50.0533 83.5719 49.2226H83.6971L84.5591 43.0354L84.2115 43.1049H84.003C83.5457 43.2019 83.08 43.2531 82.6126 43.2579C82.3371 43.2779 82.0605 43.2386 81.8014 43.1426C81.5424 43.0467 81.307 42.8963 81.1109 42.7017C80.9638 42.5053 80.8614 42.279 80.811 42.0388C80.7605 41.7987 80.7633 41.5503 80.819 41.3113L81.4585 35.9305ZM76.8981 49.9596C74.4371 49.9596 72.7269 49.3895 71.7119 48.2633C71.2475 47.6156 70.9277 46.8757 70.7741 46.0937C70.6206 45.3117 70.637 44.5058 70.822 43.7306L72.0178 35.3883H69.237L70.1408 28.9786H72.9215L73.6028 24.1261H82.6543L81.973 28.9786H84.6425L83.7249 35.3883H81.0553L80.235 41.1862C80.1675 41.5005 80.1711 41.826 80.2457 42.1388C80.3203 42.4515 80.4639 42.7436 80.666 42.9937C80.9069 43.245 81.1995 43.4411 81.5236 43.5683C81.8477 43.6956 82.1955 43.7509 82.543 43.7306C83.01 43.7301 83.4757 43.6836 83.9334 43.5916L83.2104 48.7777C81.1963 49.5545 79.0568 49.9551 76.8981 49.9596Z" fill="white"/>
<path d="M100.062 28.5058C93.374 28.5058 86.6028 32.677 86.6028 40.6578C86.6028 46.2194 90.774 49.9596 96.9751 49.9596C103.454 49.9596 110.351 45.7189 110.351 37.8492C110.351 32.2599 106.221 28.5058 100.062 28.5058ZM97.9623 43.1744C96.419 43.1744 95.3622 41.784 95.3622 39.8236C95.3622 37.3765 97.0168 35.3048 98.9773 35.3048C100.521 35.3048 101.563 36.6952 101.563 38.6418C101.577 41.0889 99.9227 43.1744 97.9623 43.1744Z" fill="#3DAE2B"/>
<path d="M107.709 30.5775C105.55 28.8306 102.838 27.9134 100.062 27.9914C96.5287 27.926 93.0845 29.102 90.3291 31.3144C88.9586 32.4495 87.8618 33.8791 87.1204 35.4968C86.379 37.1145 86.0119 38.8786 86.0467 40.6578C86.0467 46.5253 90.4264 50.474 96.9334 50.474C100.432 50.5175 103.835 49.3372 106.555 47.137C107.919 46.0098 109.012 44.5892 109.751 42.981C110.49 41.3729 110.857 39.6187 110.823 37.8492C110.871 36.4827 110.616 35.1227 110.078 33.8658C109.539 32.6089 108.731 31.4862 107.709 30.5775ZM96.9752 49.9595C90.774 49.9595 86.6028 46.2194 86.6028 40.6578C86.6028 32.677 93.374 28.5058 100.062 28.5058C106.221 28.5058 110.351 32.2599 110.351 37.8492C110.351 45.7188 103.454 49.9595 96.9752 49.9595Z" fill="white"/>
<path d="M98.9915 35.3048C97.031 35.3048 95.3765 37.3765 95.3765 39.8236C95.3765 41.8257 96.4193 43.1605 97.9626 43.1605C99.923 43.1605 101.578 41.0888 101.578 38.6418C101.578 36.6396 100.535 35.3048 98.9915 35.3048ZM97.9626 42.6461C96.5722 42.6461 95.8909 41.2557 95.8909 39.8653C95.8909 37.6963 97.2813 35.8471 98.9915 35.8471C100.382 35.8471 101.063 37.2375 101.063 38.6278C101.063 40.8108 99.645 42.6461 97.9626 42.6461Z" fill="white"/>
<path d="M93.2489 12.85C93.2489 12.85 93.2489 12.7249 93.2489 12.6832C93.1902 12.656 93.1428 12.6092 93.1149 12.5508C93.0869 12.4924 93.0803 12.4261 93.096 12.3634C93.096 12.292 93.1171 12.2222 93.1567 12.1629C93.1962 12.1035 93.2525 12.0571 93.3184 12.0297L93.4018 11.8628L93.5826 9.80506C93.592 9.72855 93.6276 9.65766 93.6834 9.60443C93.7391 9.5512 93.8116 9.51892 93.8885 9.51308H96.6692L96.5858 10.2778H94.4585L94.2778 11.988H95.9879V12.7527H94.1944L94.1109 13.5869C94.1066 13.6037 94.1062 13.6212 94.1098 13.6381C94.1135 13.655 94.121 13.6708 94.1318 13.6843C94.1426 13.6978 94.1563 13.7086 94.172 13.7158C94.1877 13.723 94.2049 13.7265 94.2222 13.726H96.2104V14.4907H93.9719C93.8627 14.4916 93.7546 14.4691 93.6549 14.4247C93.5551 14.3803 93.4661 14.3151 93.3936 14.2335C93.3212 14.1518 93.267 14.0556 93.2349 13.9512C93.2027 13.8469 93.1933 13.7369 93.2072 13.6286L93.2489 12.85Z" fill="white"/>
<path d="M99.4363 12.0297L100.688 14.4907H99.5336L98.7967 12.9195L97.7122 14.4907H96.6138L98.3935 12.0297L97.1421 9.51308H98.2266L99.0052 11.1954L100.131 9.56869H101.216L99.4363 12.0297Z" fill="white"/>
<path d="M102.648 10.4168C102.652 10.4001 102.653 10.3826 102.649 10.3657C102.646 10.3488 102.638 10.333 102.627 10.3195C102.616 10.306 102.603 10.2952 102.587 10.288C102.571 10.2807 102.554 10.2772 102.537 10.2778H101.425V9.51308H104.859L104.775 10.2778H103.705C103.668 10.2826 103.634 10.2984 103.607 10.3233C103.579 10.3482 103.56 10.3808 103.552 10.4168L103.121 14.4907H102.189L102.648 10.4168Z" fill="white"/>
<path d="M105.345 12.85C105.345 12.85 105.345 12.7249 105.345 12.6832C105.307 12.6798 105.271 12.6687 105.237 12.6505C105.204 12.6324 105.174 12.6075 105.151 12.5776C105.127 12.5476 105.11 12.5131 105.101 12.4763C105.091 12.4394 105.089 12.401 105.095 12.3634C105.095 12.292 105.116 12.2222 105.156 12.1629C105.195 12.1035 105.252 12.0571 105.318 12.0297L105.401 11.8628L105.679 9.80506C105.688 9.72855 105.724 9.65766 105.78 9.60443C105.836 9.5512 105.908 9.51892 105.985 9.51308H107.181C108.571 9.51308 109.044 10.1248 108.933 11.112C108.914 11.4018 108.82 11.6817 108.662 11.9252C108.504 12.1686 108.286 12.3674 108.029 12.5024C108.085 12.9132 108.207 13.3122 108.39 13.6842C108.406 13.6916 108.422 13.6955 108.439 13.6955C108.456 13.6955 108.473 13.6916 108.488 13.6842H108.696C108.742 13.6835 108.786 13.6928 108.828 13.7115C108.869 13.7303 108.906 13.7579 108.935 13.7925C108.964 13.8271 108.985 13.8678 108.997 13.9116C109.009 13.9554 109.01 14.0012 109.002 14.0458C109.002 14.4212 108.474 14.4907 108.223 14.4907C107.459 14.4907 107.278 13.5869 107.125 12.6832H106.291L106.11 14.4212H105.179L105.345 12.85ZM106.917 11.988C107.653 11.988 107.959 11.6265 108.015 11.112C108.071 10.5976 107.834 10.2778 107.097 10.2778H106.555L106.374 11.988H106.917Z" fill="white"/>
<path d="M109.878 12.85C109.878 12.85 109.878 12.7249 109.878 12.6831C109.823 12.6523 109.778 12.605 109.751 12.5477C109.723 12.4904 109.714 12.4259 109.725 12.3634C109.727 12.2924 109.749 12.2234 109.788 12.1643C109.828 12.1052 109.883 12.0586 109.948 12.0297L110.031 11.8628V11.251C110.053 10.7593 110.265 10.2954 110.624 9.95784C110.982 9.62032 111.458 9.43581 111.95 9.44353C112.176 9.42707 112.404 9.46272 112.614 9.54775C112.825 9.63278 113.014 9.76492 113.165 9.93405C113.317 10.1032 113.428 10.3048 113.489 10.5234C113.551 10.7421 113.562 10.972 113.521 11.1954L113.271 13.5869C113.271 13.6981 113.271 13.7398 113.34 13.7398C113.41 13.7398 113.507 13.7398 113.591 13.7398C113.638 13.7355 113.686 13.7429 113.73 13.7615C113.774 13.78 113.813 13.8091 113.843 13.8462C113.873 13.8833 113.894 13.9272 113.903 13.9741C113.913 14.021 113.91 14.0695 113.896 14.1152C113.896 14.5046 113.354 14.5602 113.076 14.5602C112.798 14.5602 112.27 14.2682 112.339 13.6564L112.436 12.7527H110.824L110.657 14.4907H109.725L109.878 12.85ZM112.659 11.251C112.659 10.6532 112.464 10.2361 111.964 10.2361C111.463 10.2361 111.116 10.6532 111.046 11.251L110.963 11.9879H112.589L112.659 11.251Z" fill="white"/>
<path d="M92.9431 20.0105C93.0372 20.2493 93.2023 20.4534 93.4162 20.5951C93.6301 20.7369 93.8824 20.8095 94.1389 20.8031C94.7368 20.8031 95.14 20.5667 95.1817 20.094C95.3207 18.8426 92.4009 19.4822 92.6373 17.2297C92.7126 16.7557 92.9628 16.3272 93.3386 16.0286C93.7144 15.73 94.1885 15.5831 94.6672 15.6169C95.6822 15.6169 96.4747 16.1452 96.3913 17.0073C96.3849 17.207 96.3045 17.3973 96.1658 17.5411C96.0271 17.685 95.8399 17.7722 95.6405 17.7859C95.5768 17.7924 95.5125 17.7847 95.4521 17.7632C95.3918 17.7418 95.337 17.7072 95.2918 17.6619C95.2465 17.6166 95.2119 17.5619 95.1904 17.5015C95.169 17.4412 95.1612 17.3769 95.1678 17.3132C95.1678 17.0768 95.3068 17.0212 95.3207 16.91C95.3346 16.7987 94.987 16.5206 94.5421 16.5206C94.4361 16.5111 94.3293 16.5227 94.2278 16.5546C94.1263 16.5865 94.0321 16.6382 93.9507 16.7067C93.8693 16.7752 93.8022 16.8592 93.7534 16.9537C93.7045 17.0482 93.6749 17.1515 93.6661 17.2576C93.541 18.4116 96.4469 18.0084 96.2523 20.0383C96.1893 20.5624 95.9247 21.0413 95.5146 21.3735C95.1045 21.7057 94.5811 21.8652 94.0555 21.818C93.6695 21.8573 93.2807 21.7803 92.9388 21.5969C92.5969 21.4136 92.3176 21.1323 92.1367 20.7892L92.9431 20.0105Z" fill="white"/>
<path d="M98.4352 21.7068H97.309L97.8374 16.757C97.8374 16.6319 97.8374 16.5902 97.754 16.5902C97.6705 16.5902 97.5732 16.5902 97.4481 16.5902C97.3923 16.5911 97.3371 16.5797 97.2863 16.5566C97.2356 16.5336 97.1906 16.4995 97.1546 16.4569C97.1187 16.4143 97.0927 16.3642 97.0785 16.3103C97.0643 16.2564 97.0623 16.2 97.0727 16.1452C97.0727 15.7003 97.6566 15.603 98.0459 15.603C98.1844 15.5864 98.3248 15.6042 98.4547 15.6548C98.5846 15.7054 98.7 15.7873 98.7908 15.8931C98.8815 15.999 98.9447 16.1256 98.9749 16.2617C99.005 16.3978 99.0012 16.5393 98.9636 16.6736L98.755 18.6618H100.674L100.924 15.7003H102.05L101.411 21.7068H100.284L100.507 19.6073H98.6577L98.4352 21.7068Z" fill="white"/>
<path d="M105.985 15.6169C106.379 15.5903 106.774 15.6559 107.139 15.8086C107.503 15.9612 107.827 16.1966 108.085 16.4961C108.342 16.7956 108.527 17.151 108.623 17.5342C108.72 17.9173 108.726 18.3177 108.641 18.7035C108.598 19.5469 108.228 20.3404 107.611 20.9164C106.993 21.4924 106.176 21.8057 105.332 21.7902C104.936 21.819 104.54 21.7551 104.173 21.6035C103.807 21.4519 103.481 21.2168 103.222 20.917C102.963 20.6171 102.777 20.2609 102.68 19.8766C102.583 19.4923 102.576 19.0906 102.662 18.7035C102.709 17.859 103.081 17.0654 103.701 16.4897C104.32 15.9141 105.139 15.6012 105.985 15.6169ZM105.429 20.8447C105.986 20.8268 106.514 20.5937 106.903 20.1945C107.292 19.7952 107.511 19.2608 107.514 18.7035C107.653 17.4383 107.014 16.5623 105.888 16.5623C105.329 16.5802 104.799 16.8128 104.408 17.2117C104.017 17.6105 103.795 18.1449 103.788 18.7035C103.705 19.9688 104.289 20.8447 105.429 20.8447Z" fill="white"/>
<path d="M110.865 16.757C110.865 16.7164 110.849 16.6775 110.821 16.6489C110.792 16.6202 110.753 16.6041 110.712 16.6041H109.322L109.419 15.6725H113.591L113.493 16.6041H112.103C112.081 16.6227 112.065 16.6465 112.055 16.6733C112.045 16.7001 112.043 16.7289 112.047 16.757L111.519 21.679H110.393L110.865 16.757Z" fill="white"/>
<path d="M100.062 26.9208C96.2891 26.8635 92.6149 28.1276 89.6758 30.4941C88.1838 31.7278 86.9899 33.2827 86.1833 35.0427C85.3767 36.8027 84.9784 38.7222 85.018 40.6578C85.018 40.9359 85.018 41.353 85.018 41.7701L83.9613 41.9926H83.7527C83.3419 42.0843 82.9223 42.131 82.5014 42.1316C82.26 42.1547 82.0183 42.0906 81.8201 41.9509C81.7541 41.7714 81.7541 41.5743 81.8201 41.3947L82.4458 36.9594H84.9207C84.9751 36.9598 85.0279 36.9402 85.0689 36.9043C85.1099 36.8685 85.1363 36.8188 85.1431 36.7647L86.4501 27.6438C86.474 27.5859 86.474 27.5209 86.4501 27.463C86.4051 27.4199 86.3456 27.3951 86.2832 27.3935H83.7944L84.434 22.7913C84.4565 22.7332 84.4565 22.6687 84.434 22.6105C84.4124 22.5836 84.3849 22.562 84.3535 22.5475C84.3221 22.533 84.2878 22.526 84.2533 22.5271H72.421C72.3666 22.5267 72.3138 22.5463 72.2728 22.5822C72.2318 22.618 72.2054 22.6677 72.1986 22.7218L71.5451 27.3935H67.0541L67.6937 22.7913C67.7073 22.7631 67.7143 22.7322 67.7143 22.7009C67.7143 22.6696 67.7073 22.6387 67.6937 22.6105C67.6751 22.5838 67.6501 22.5621 67.6209 22.5475C67.5918 22.533 67.5594 22.5259 67.5269 22.5271H55.6807C55.6262 22.5267 55.5735 22.5463 55.5325 22.5822C55.4915 22.618 55.4651 22.6677 55.4583 22.7218L54.8187 27.3935H52.7331C52.6786 27.3931 52.6259 27.4126 52.5849 27.4485C52.5439 27.4844 52.5174 27.5341 52.5106 27.5881L51.6347 33.7198C49.994 29.4652 45.8089 26.879 40.5116 26.879C36.7424 26.8192 33.0718 28.0838 30.1392 30.4524C28.6472 31.686 27.4533 33.241 26.6468 35.001C25.8402 36.761 25.4418 38.6805 25.4814 40.6161V40.7969H17.7369L20.3926 21.8458C20.4108 21.787 20.4108 21.724 20.3926 21.6651C20.3433 21.6199 20.2787 21.595 20.2118 21.5956H8.11544C8.06005 21.5973 8.00679 21.6173 7.96402 21.6525C7.92124 21.6877 7.89136 21.7362 7.87908 21.7902L3.81913 50.766C3.79662 50.8241 3.79662 50.8886 3.81913 50.9467C3.83925 50.9719 3.86458 50.9924 3.89339 51.0068C3.9222 51.0212 3.95379 51.0291 3.98598 51.0301H25.6761C25.7306 51.0306 25.7833 51.011 25.8243 50.9751C25.8653 50.9392 25.8917 50.8895 25.8985 50.8355L26.6215 45.7606C28.4847 49.3895 32.4612 51.5168 37.411 51.5168C44.6549 51.5168 52.3716 46.7199 52.3716 37.8075C52.3859 37.5296 52.3859 37.2512 52.3716 36.9733H53.4839L52.5523 43.4803C52.3262 44.4796 52.321 45.5161 52.5371 46.5176C52.7533 47.5191 53.1855 48.4612 53.8037 49.2782C55.0411 50.8077 57.1684 51.5168 60.1578 51.5168C62.583 51.5002 64.9836 51.0286 67.2349 50.1264L67.8188 49.89C67.8545 49.8745 67.8851 49.8494 67.9072 49.8175C67.9293 49.7855 67.942 49.7481 67.944 49.7093L69.0285 41.8953C69.033 41.8595 69.0293 41.8232 69.0176 41.7891C69.0059 41.7549 68.9866 41.724 68.9611 41.6985C68.9356 41.673 68.9046 41.6536 68.8705 41.642C68.8364 41.6303 68.8001 41.6266 68.7643 41.6311L67.2766 41.9092H67.0541C66.6435 42.0018 66.2238 42.0484 65.8028 42.0482C65.5616 42.0689 65.3207 42.005 65.1215 41.8675C65.0555 41.6879 65.0555 41.4908 65.1215 41.3113L65.7611 36.876H70.2381L69.3066 43.383C69.0823 44.3832 69.0794 45.4204 69.298 46.4219C69.5165 47.4234 69.9513 48.365 70.5718 49.1809C71.8788 50.6825 73.9644 51.4195 76.9537 51.4195C79.379 51.4029 81.7795 50.9312 84.0308 50.0291L84.6009 49.7927C84.6374 49.7767 84.6693 49.7518 84.6936 49.7202C84.7179 49.6886 84.7339 49.6514 84.7399 49.6119L85.5463 43.8418C86.8811 48.736 91.1913 51.5168 96.9753 51.5168C104.233 51.5168 111.936 46.7199 111.936 37.8214C111.936 31.4117 107.056 26.9208 100.062 26.9208ZM96.9753 51.0858C91.0801 51.0858 86.8116 48.0547 85.7271 43.1466C85.7271 42.9103 85.6298 42.8407 85.4351 42.8825C85.2404 42.9242 85.1848 42.8825 85.1431 43.2161L84.2394 49.598L83.7805 49.7927C81.5666 50.6622 79.2071 51.1011 76.8286 51.0858C74.0478 51.0858 72.0039 50.4045 70.7943 49.0002C70.2184 48.2323 69.8169 47.3481 69.6176 46.4093C69.4183 45.4704 69.426 44.4993 69.6403 43.5637L70.5996 36.8064C70.6132 36.7782 70.6202 36.7474 70.6202 36.7161C70.6202 36.6848 70.6132 36.6539 70.5996 36.6257C70.5768 36.6002 70.549 36.5796 70.5179 36.5652C70.4868 36.5509 70.4531 36.5431 70.4189 36.5423H65.4969C65.4424 36.5418 65.3897 36.5614 65.3487 36.5973C65.3076 36.6332 65.2812 36.6829 65.2744 36.7369L64.6209 41.3669C64.5768 41.5217 64.5676 41.6843 64.594 41.843C64.6205 42.0017 64.6819 42.1526 64.7739 42.2846C64.9144 42.4061 65.0778 42.4983 65.2545 42.5556C65.4313 42.6129 65.6177 42.6342 65.8028 42.6183C66.27 42.6234 66.7363 42.5768 67.1932 42.4792L68.5836 42.229L67.5547 49.598L67.0958 49.7927C64.8819 50.6622 62.5224 51.1011 60.1439 51.0858C57.3631 51.0858 55.3331 50.4045 54.1096 49.0002C53.5337 48.2323 53.1322 47.3481 52.9329 46.4093C52.7336 45.4704 52.7413 44.4993 52.9556 43.5637L53.9288 36.8064C53.949 36.7479 53.949 36.6843 53.9288 36.6257C53.9073 36.5987 53.8797 36.5771 53.8483 36.5626C53.8169 36.5482 53.7826 36.5412 53.7481 36.5423H52.1074C52.076 36.5382 52.044 36.5425 52.0147 36.5547C51.9854 36.5669 51.9598 36.5866 51.9406 36.6118C51.9152 36.634 51.8957 36.6621 51.8836 36.6936C51.8715 36.7251 51.8672 36.759 51.8711 36.7925C51.8928 37.1398 51.8928 37.4881 51.8711 37.8353C51.8711 46.4279 44.3908 51.0719 37.3693 51.0719C32.2943 51.0719 28.3039 48.7499 26.6772 44.8568C26.6547 44.8108 26.6186 44.7728 26.5739 44.748C26.5291 44.7231 26.4778 44.7126 26.4269 44.7178C26.3782 44.7258 26.3332 44.7489 26.2983 44.7838C26.2634 44.8187 26.2403 44.8637 26.2322 44.9124L25.4258 50.5574H4.30577L8.3101 22.11H19.8782L17.2225 41.061C17.2099 41.0895 17.2033 41.1203 17.2033 41.1514C17.2033 41.1826 17.2099 41.2133 17.2225 41.2418C17.2411 41.2686 17.2661 41.2902 17.2953 41.3048C17.3244 41.3194 17.3568 41.3264 17.3894 41.3252H25.6205C25.6742 41.3455 25.7335 41.3455 25.7873 41.3252C25.8305 41.2802 25.8553 41.2207 25.8568 41.1584C25.8499 41.0426 25.8499 40.9265 25.8568 40.8108C25.8179 38.9406 26.203 37.086 26.9832 35.3859C27.7634 33.6859 28.9185 32.1845 30.3617 30.9946C33.2133 28.6953 36.7793 27.4656 40.442 27.5186C45.9341 27.5186 50.1748 30.3689 51.4539 34.9572C51.4539 35.0162 51.4774 35.0728 51.5191 35.1145C51.5608 35.1562 51.6174 35.1797 51.6764 35.1797C51.7354 35.1797 51.792 35.1562 51.8337 35.1145C51.8754 35.0728 51.8989 35.0162 51.8989 34.9572L52.886 28.0053H55.0411C55.0956 28.0057 55.1484 27.9861 55.1894 27.9502C55.2304 27.9143 55.2568 27.8647 55.2636 27.8106L55.9032 23.1528H67.2349L66.5953 27.755C66.5771 27.8139 66.5771 27.8769 66.5953 27.9357C66.6403 27.9789 66.6998 28.0037 66.7621 28.0053H71.7258C71.7803 28.0057 71.8331 27.9861 71.8741 27.9502C71.9151 27.9143 71.9415 27.8647 71.9483 27.8106L72.5879 23.1528H83.9196L83.28 27.755C83.2561 27.8129 83.2561 27.8779 83.28 27.9357C83.3242 27.9801 83.3842 28.0051 83.4468 28.0053H85.8661L84.6287 36.6674H82.2372C82.1827 36.667 82.13 36.6866 82.089 36.7224C82.048 36.7583 82.0215 36.808 82.0147 36.8621L81.3613 41.4921C81.3171 41.6468 81.3079 41.8094 81.3343 41.9681C81.3608 42.1268 81.4222 42.2777 81.5142 42.4097C81.6547 42.5313 81.8181 42.6234 81.9949 42.6807C82.1716 42.738 82.358 42.7594 82.5431 42.7434C83.0102 42.7477 83.4764 42.701 83.9335 42.6044L85.4073 42.2985C85.4624 42.2854 85.511 42.2529 85.5442 42.2069C85.5773 42.161 85.5929 42.1047 85.588 42.0482C85.565 41.6268 85.565 41.2044 85.588 40.783C85.5495 38.9143 85.9333 37.061 86.7109 35.3613C87.4885 33.6616 88.6399 32.1594 90.079 30.9668C92.9355 28.6665 96.5061 27.4369 100.173 27.4908C106.889 27.4908 111.588 31.801 111.588 37.9744C111.477 46.4419 104.011 51.0858 96.9753 51.0858Z" fill="#3DAE2B"/>
<path d="M123.17 6.02316C123.184 6.38915 123.089 6.75093 122.896 7.06264C122.704 7.37435 122.423 7.62195 122.09 7.77404C121.757 7.92613 121.386 7.97586 121.025 7.91693C120.663 7.858 120.328 7.69306 120.06 7.44303C119.792 7.193 119.605 6.86913 119.522 6.51249C119.438 6.15585 119.463 5.78251 119.592 5.43978C119.721 5.09706 119.949 4.80041 120.247 4.58742C120.545 4.37444 120.899 4.25473 121.265 4.24346C121.754 4.22843 122.228 4.40715 122.585 4.74058C122.942 5.07401 123.152 5.53509 123.17 6.02316ZM122.823 6.02316C122.823 5.72617 122.735 5.43584 122.57 5.1889C122.405 4.94196 122.17 4.7495 121.896 4.63584C121.621 4.52219 121.319 4.49245 121.028 4.55039C120.737 4.60833 120.469 4.75135 120.259 4.96135C120.049 5.17136 119.906 5.43892 119.848 5.73021C119.79 6.02149 119.82 6.32342 119.934 6.59781C120.047 6.87219 120.24 7.10671 120.487 7.27171C120.734 7.43671 121.024 7.52478 121.321 7.52478C121.711 7.51387 122.081 7.35042 122.351 7.06959C122.622 6.78876 122.771 6.41301 122.767 6.02316H122.823ZM121.724 6.23172L122.155 6.95472H121.78L121.377 6.27343H121.043V7.02424H120.682V5.03598H121.474C121.558 5.03399 121.641 5.04928 121.719 5.08089C121.797 5.11251 121.867 5.15978 121.926 5.21977C121.985 5.27976 122.03 5.35118 122.06 5.42959C122.09 5.50801 122.104 5.59173 122.1 5.67556C122.1 5.80312 122.058 5.92725 121.98 6.02807C121.902 6.1289 121.792 6.20061 121.669 6.23172H121.724ZM121.043 5.93974H121.446C121.485 5.94364 121.524 5.93934 121.561 5.92712C121.598 5.9149 121.632 5.89504 121.661 5.86881C121.69 5.84259 121.713 5.8106 121.729 5.77491C121.744 5.73922 121.752 5.70064 121.752 5.66166C121.754 5.62153 121.748 5.58139 121.733 5.54402C121.718 5.50665 121.696 5.47292 121.666 5.44517C121.637 5.41742 121.603 5.3963 121.565 5.38326C121.527 5.37023 121.486 5.3656 121.446 5.36968H121.043V5.93974Z" fill="#E65300"/>
</svg>
