<?xml version="1.0" encoding="UTF-8"?>
<svg width="100px" height="23px" viewBox="0 0 100 23" version="1.1" xmlns="http://www.w3.org/2000/svg" xmlns:xlink="http://www.w3.org/1999/xlink">
    <!-- Generator: Sketch 57.1 (83088) - https://sketch.com -->
    <title>Lotto - Left-Aligned - ColouredSVG</title>
    <desc>Created with Sketch.</desc>
    <g id="Lotto---Left-Aligned---Coloured" stroke="none" stroke-width="1" fill="none" fill-rule="evenodd">
        <polygon id="Path" fill="#FFFFFF" fill-rule="nonzero" points="0.650545476 0.656 6.31454548 0.656 6.31454548 17.008 16.2025455 17.008 16.2025455 22 0.650545476 22"></polygon>
        <path d="M27.6527273,0.08 C29.2527353,0.08 30.7353871,0.35733056 32.1007273,0.912 C33.4660674,1.46666944 34.639389,2.23999504 35.6207273,3.232 C36.6020655,4.22400496 37.3700578,5.40799312 37.9247273,6.784 C38.4793967,8.16000688 38.7567273,9.65865856 38.7567273,11.28 C38.7567273,12.9013414 38.4793967,14.3999931 37.9247273,15.776 C37.3700578,17.1520069 36.6020655,18.335995 35.6207273,19.328 C34.639389,20.320005 33.4660674,21.0986638 32.1007273,21.664 C30.7353871,22.2293362 29.2527353,22.512 27.6527273,22.512 C26.0527193,22.512 24.5754007,22.2293362 23.2207273,21.664 C21.8660538,21.0986638 20.6927322,20.320005 19.7007273,19.328 C18.7087223,18.335995 17.9353967,17.1520069 17.3807273,15.776 C16.8260578,14.3999931 16.5487273,12.9013414 16.5487273,11.28 C16.5487273,9.65865856 16.8260578,8.16000688 17.3807273,6.784 C17.9353967,5.40799312 18.7087223,4.22400496 19.7007273,3.232 C20.6927322,2.23999504 21.8660538,1.46666944 23.2207273,0.912 C24.5754007,0.35733056 26.0527193,0.08 27.6527273,0.08 Z M27.6527273,5.36 C26.8207231,5.36 26.0793972,5.51466512 25.4287273,5.824 C24.7780574,6.13333488 24.2287295,6.554664 23.7807273,7.088 C23.332725,7.621336 22.9913951,8.25066304 22.7567273,8.976 C22.5220594,9.70133696 22.4047273,10.4693293 22.4047273,11.28 C22.4047273,12.0906707 22.5220594,12.858663 22.7567273,13.584 C22.9913951,14.309337 23.332725,14.938664 23.7807273,15.472 C24.2287295,16.005336 24.7780574,16.4266651 25.4287273,16.736 C26.0793972,17.0453349 26.8207231,17.2 27.6527273,17.2 C28.4847314,17.2 29.2260574,17.0453349 29.8767273,16.736 C30.5273972,16.4266651 31.076725,16.005336 31.5247273,15.472 C31.9727295,14.938664 32.3140594,14.309337 32.5487273,13.584 C32.7833951,12.858663 32.9007273,12.0906707 32.9007273,11.28 C32.9007273,10.4693293 32.7833951,9.70133696 32.5487273,8.976 C32.3140594,8.25066304 31.9727295,7.621336 31.5247273,7.088 C31.076725,6.554664 30.5273972,6.13333488 29.8767273,5.824 C29.2260574,5.51466512 28.4847314,5.36 27.6527273,5.36 Z" id="Combined-Shape" fill="#FFFFFF" fill-rule="nonzero"></path>
        <polygon id="Path" fill="#FFFFFF" fill-rule="nonzero" points="45.5029091 5.616 38.9429091 5.616 38.9429091 0.656 57.7269091 0.656 57.7269091 5.616 51.2309091 5.616 51.2309091 22 45.5029091 22"></polygon>
        <polygon id="Path" fill="#FFFFFF" fill-rule="nonzero" points="65.1450909 5.616 58.5850909 5.616 58.5850909 0.656 77.3690909 0.656 77.3690909 5.616 70.8730909 5.616 70.8730909 22 65.1450909 22"></polygon>
        <path d="M88.6592727,0.08 C90.2592807,0.08 91.7419326,0.35733056 93.1072727,0.912 C94.4726129,1.46666944 95.6459345,2.23999504 96.6272727,3.232 C97.608611,4.22400496 98.3766033,5.40799312 98.9312727,6.784 C99.4859422,8.16000688 99.7632727,9.65865856 99.7632727,11.28 C99.7632727,12.9013414 99.4859422,14.3999931 98.9312727,15.776 C98.3766033,17.1520069 97.608611,18.335995 96.6272727,19.328 C95.6459345,20.320005 94.4726129,21.0986638 93.1072727,21.664 C91.7419326,22.2293362 90.2592807,22.512 88.6592727,22.512 C87.0592647,22.512 85.5819462,22.2293362 84.2272727,21.664 C82.8725993,21.0986638 81.6992777,20.320005 80.7072727,19.328 C79.7152678,18.335995 78.9419422,17.1520069 78.3872727,15.776 C77.8326033,14.3999931 77.5552727,12.9013414 77.5552727,11.28 C77.5552727,9.65865856 77.8326033,8.16000688 78.3872727,6.784 C78.9419422,5.40799312 79.7152678,4.22400496 80.7072727,3.232 C81.6992777,2.23999504 82.8725993,1.46666944 84.2272727,0.912 C85.5819462,0.35733056 87.0592647,0.08 88.6592727,0.08 Z M88.6592727,5.36 C87.8272686,5.36 87.0859426,5.51466512 86.4352727,5.824 C85.7846028,6.13333488 85.235275,6.554664 84.7872727,7.088 C84.3392705,7.621336 83.9979406,8.25066304 83.7632727,8.976 C83.5286049,9.70133696 83.4112727,10.4693293 83.4112727,11.28 C83.4112727,12.0906707 83.5286049,12.858663 83.7632727,13.584 C83.9979406,14.309337 84.3392705,14.938664 84.7872727,15.472 C85.235275,16.005336 85.7846028,16.4266651 86.4352727,16.736 C87.0859426,17.0453349 87.8272686,17.2 88.6592727,17.2 C89.4912769,17.2 90.2326028,17.0453349 90.8832727,16.736 C91.5339426,16.4266651 92.0832705,16.005336 92.5312727,15.472 C92.979275,14.938664 93.3206049,14.309337 93.5552727,13.584 C93.7899406,12.858663 93.9072727,12.0906707 93.9072727,11.28 C93.9072727,10.4693293 93.7899406,9.70133696 93.5552727,8.976 C93.3206049,8.25066304 92.979275,7.621336 92.5312727,7.088 C92.0832705,6.554664 91.5339426,6.13333488 90.8832727,5.824 C90.2326028,5.51466512 89.4912769,5.36 88.6592727,5.36 Z" id="Combined-Shape" fill="#FFFFFF" fill-rule="nonzero"></path>
    </g>
</svg>