<svg width="128" height="68" viewBox="0 0 128 68" fill="none" xmlns="http://www.w3.org/2000/svg">
<path d="M127.225 16.3066C127.223 15.3454 126.935 14.4065 126.397 13.6102C125.859 12.8139 125.095 12.1964 124.203 11.8369C123.312 11.4774 122.334 11.3922 121.393 11.5922C120.453 11.7922 119.594 12.2684 118.926 12.9596L114.044 12.4203H113.712C113.033 12.4222 112.375 12.6544 111.845 13.079C111.315 13.5035 110.944 14.0953 110.794 14.7576L110.352 16.6523C109.346 14.9974 107.991 13.5816 106.382 12.5032C104.631 11.5538 102.662 11.0771 100.67 11.1202C99.2087 11.0935 97.7562 11.3567 96.3969 11.8947C95.474 12.3183 94.617 12.8726 93.8521 13.5405V12.9873C93.8529 12.2495 93.5806 11.5376 93.0878 10.9886C92.595 10.4396 91.9164 10.0923 91.1828 10.0138L78.0579 8.63074H77.7536C77.0067 8.62357 76.2849 8.90041 75.7344 9.40524C75.5955 9.53495 75.4704 9.67862 75.3609 9.83398C75.1428 9.37209 74.8093 8.9742 74.3926 8.67866C73.9759 8.38312 73.4902 8.19991 72.9821 8.14668L64.0201 7.17856H63.702C63.0376 7.17737 62.3919 7.39874 61.868 7.80734C61.3441 8.21594 60.9721 8.78822 60.8114 9.4329L60.0508 12.4341L58.8614 8.45095C58.6962 7.88486 58.3658 7.381 57.9124 7.00398C57.459 6.62697 56.9033 6.39398 56.3166 6.33491L45.2523 5.18699H44.948C44.2574 5.17824 43.585 5.40911 43.0454 5.84031C42.5057 6.27151 42.1322 6.87638 41.9884 7.55198C38.7976 5.79913 35.113 5.16151 31.5188 5.7402C31.3525 5.51641 31.1518 5.32035 30.9241 5.15933C30.6613 4.95188 23.7877 0.0559387 15.8076 0.0559387C15.2128 0.0559387 14.6181 0.0559387 14.0373 0.138921C10.5877 0.204916 7.28902 1.56562 4.79613 3.9509C2.30324 6.33618 0.798407 9.57163 0.580362 13.015C0.265881 17.7247 1.14098 22.4379 3.12514 26.7208C5.22207 31.0961 8.0257 35.096 11.4233 38.5596C13.7911 41.0855 16.4408 43.3315 19.3205 45.2535C18.9115 45.4728 18.5643 45.7914 18.3108 46.1801C17.9272 46.7531 17.7547 47.4417 17.8228 48.128C17.8909 48.8142 18.1954 49.4555 18.6843 49.9419C23.5249 54.7826 32.3763 56.1518 36.4286 56.5252C36.4387 57.2819 36.7409 58.0054 37.2722 58.5444C37.5513 58.8251 37.8832 59.0478 38.2487 59.1997C38.6143 59.3517 39.0062 59.4298 39.4021 59.4295H39.7478L45.8747 58.6965C46.5981 58.602 47.2645 58.2541 47.7556 57.7146C48.104 57.9364 48.4951 58.0825 48.9035 58.1433C48.759 58.5898 48.7304 59.0658 48.8205 59.5264L49.6365 63.6755C49.7681 64.3529 50.1313 64.9634 50.6637 65.4025C51.1961 65.8416 51.8646 66.0818 52.5547 66.0819C52.7207 66.0819 65.002 64.0627 65.002 64.0627C64.9448 64.4831 64.9782 64.911 65.1 65.3174C65.2218 65.7239 65.4292 66.0996 65.7083 66.4193C65.9873 66.7389 66.3316 66.9952 66.7179 67.1708C67.1042 67.3463 67.5236 67.4372 67.9479 67.4373C68.1415 67.4373 114.556 58.4614 114.556 58.4614C115.212 58.3445 115.807 58.0058 116.242 57.5023C116.678 56.9987 116.927 56.3608 116.949 55.6954C117.682 55.6443 118.393 55.4242 119.026 55.0524C119.66 54.6805 120.199 54.1671 120.6 53.5521C121.002 52.9372 121.256 52.2376 121.343 51.5081C121.429 50.7785 121.345 50.0389 121.098 49.3472C122.394 48.8378 123.501 47.9391 124.265 46.7748C124.599 46.2506 124.846 45.6763 124.998 45.0737C125.428 43.7125 125.364 42.2435 124.818 40.9246C124.737 40.7392 124.645 40.5591 124.542 40.3852C124.694 40.0394 124.874 39.583 125.122 39.0021C125.283 38.6287 125.366 38.2263 125.366 37.8197C125.366 37.413 125.283 37.0106 125.122 36.6372C125.071 36.5311 125.011 36.4293 124.943 36.3329C125.38 35.6841 125.544 34.889 125.399 34.12L122.84 21.0919C124.035 20.9819 125.146 20.4308 125.957 19.5461C126.767 18.6613 127.219 17.5064 127.225 16.3066ZM13.6362 17.7588C13.6362 17.9109 13.6362 18.0769 13.6362 18.229C13.6223 18.0587 13.6223 17.8876 13.6362 17.7173V17.7588Z" fill="white"/>
<path d="M77.7527 11.6043L90.8638 12.9873V19.1141H85.2349V21.5759H90.3659V27.523H85.4423V30.3997H90.9745V36.3467L78.057 36.9829L77.7527 11.6043Z" fill="#ED282A"/>
<path d="M101.126 23.4568H109.286C109.286 23.4568 109.576 29.1688 107.018 32.7093C106.149 33.8258 105.005 34.698 103.699 35.2409C102.392 35.7839 100.968 35.979 99.5632 35.8073C98.1911 35.6397 96.8885 35.1092 95.7896 34.2705C94.6908 33.4318 93.8355 32.3152 93.3119 31.0359C91.9508 27.5846 91.7852 23.7769 92.8417 20.2205C93.234 19.0299 93.8575 17.9284 94.6762 16.9791C95.495 16.0298 96.493 15.2513 97.6132 14.6884C98.795 14.2678 100.051 14.095 101.302 14.1807C102.554 14.2663 103.774 14.6086 104.888 15.1863C106.486 16.3516 107.77 17.8963 108.622 19.6812L103.795 22.0876C103.795 22.0876 102.772 20.0684 101.029 20.4695C101.029 20.4695 98.5121 20.9121 98.1526 24.7984C98.1526 24.7984 97.6547 29.0305 100.379 30.0954C100.724 30.2198 101.092 30.2612 101.456 30.216C101.819 30.1709 102.166 30.0405 102.47 29.8356C102.773 29.6307 103.024 29.357 103.201 29.0368C103.379 28.7166 103.478 28.359 103.491 27.9932H101.237L101.126 23.4568Z" fill="#ED282A"/>
<path d="M107.64 38.4213V48.3238L110.005 48.0887V42.8608L113.075 47.6599L115.33 47.3695V37.9787L113.172 38.1447V43.4278L110.406 38.283L107.64 38.4213Z" fill="#33357C"/>
<path d="M44.9332 8.16051L55.9975 9.30842L60.3126 23.6228L63.701 10.1382L72.663 11.1064L76.826 37.0797L68.9012 37.4808L67.6011 22.8068L63.5765 37.7851L58.1689 38.0202L52.7197 22.3919L52.1388 38.3798L41.6831 38.9053L44.9332 8.16051Z" fill="#ED282A"/>
<path d="M113.698 15.3938L118.663 15.947L122.342 34.7147L117.792 34.8807V32.5019H114.057L113.698 35.1296L109.203 35.3509L113.698 15.3938ZM116.962 27.9655L116.187 21.7142L114.998 27.9932L116.962 27.9655Z" fill="#ED282A"/>
<path d="M122.203 37.8542L121.263 40.0532C121.263 39.9288 120.723 39.5553 120.64 39.5139C120.212 39.3341 119.41 39.1681 119.119 39.6798C118.829 40.1915 118.912 40.6618 119.368 40.8554C120.295 41.2703 121.415 40.9937 121.927 42.1416C122.083 42.6334 122.133 43.1529 122.074 43.6656C122.014 44.1783 121.846 44.6724 121.581 45.1151C121.276 45.5837 120.869 45.9767 120.389 46.2643C119.91 46.5519 119.372 46.7264 118.815 46.7748C117.992 46.8044 117.17 46.6777 116.395 46.4014L117.432 43.8842C117.665 44.1089 117.949 44.275 118.259 44.3688C118.569 44.4626 118.897 44.4814 119.216 44.4236C119.31 44.4045 119.398 44.3662 119.476 44.311C119.555 44.2559 119.62 44.1851 119.67 44.1032C119.719 44.0213 119.751 43.9301 119.763 43.8353C119.776 43.7405 119.768 43.6441 119.741 43.5523C119.687 43.3272 119.568 43.1231 119.398 42.9656C119.228 42.8081 119.016 42.7043 118.787 42.6672C118.192 42.5289 117.28 42.1831 117.058 41.5884C116.888 41.2494 116.799 40.8752 116.799 40.4958C116.799 40.1164 116.888 39.7423 117.058 39.4032C117.212 39.0062 117.437 38.6407 117.722 38.3244C117.999 38.053 118.328 37.8412 118.69 37.7021C119.85 37.3207 121.108 37.3748 122.231 37.8542" fill="#33357C"/>
<path d="M41.2959 42.2384L48.1004 41.8235L51.0601 48.8908L53.1347 41.5469L59.4413 41.132L62.3318 53.7176L56.9103 54.3123L55.7486 47.1205L53.5081 54.7964L49.4973 55.2389L45.9844 48.3514L45.5556 55.7092L39.4426 56.4422L41.2959 42.2384Z" fill="#32357C"/>
<path d="M64.365 40.9245L69.2471 40.6341V52.8739L64.365 53.4686V40.9245Z" fill="#32357C"/>
<path d="M90.7255 39.3756L94.7225 39.1819V49.8866L90.6702 50.3154L90.7255 39.3756Z" fill="#32357C"/>
<path d="M72.1099 40.4405L76.674 40.1777V48.2961L80.5188 48.0472V51.5739L72.0823 52.542L72.1099 40.4405Z" fill="#32357C"/>
<path d="M81.9847 39.9288L86.4242 39.666V47.1897L90.1584 46.9407V50.3845L81.957 51.3526L81.9847 39.9288Z" fill="#32357C"/>
<path d="M106.188 45.1013C105.851 46.0219 105.253 46.8242 104.467 47.4098C103.681 47.9954 102.742 48.3389 101.763 48.398C100.785 48.4571 99.8106 48.2294 98.9598 47.7427C98.109 47.256 97.4188 46.5316 96.9739 45.6582C96.529 44.7849 96.3486 43.8007 96.4551 42.8263C96.5615 41.852 96.95 40.9299 97.573 40.1732C98.1959 39.4165 99.0262 38.8581 99.962 38.5666C100.898 38.275 101.898 38.263 102.841 38.5319C104.151 38.9656 105.238 39.8987 105.865 41.1287C106.491 42.3587 106.607 43.7862 106.188 45.1013ZM101.084 42.4044L98.0002 42.9299L100.365 44.313L99.9088 47.4939L102.163 45.2811L104.307 46.6641L103.436 43.8981L105.081 42.2523H103.131L101.9 39.6936L101.084 42.4044Z" fill="#32357C"/>
<path d="M20.26 22.2951C20.26 25.0305 21.0711 27.7044 22.5908 29.9788C24.1105 32.2532 26.2705 34.0259 28.7977 35.0727C31.3249 36.1195 34.1057 36.3933 36.7885 35.8597C39.4713 35.326 41.9356 34.0088 43.8699 32.0746C45.8041 30.1404 47.1213 27.6761 47.6549 24.9933C48.1886 22.3105 47.9147 19.5296 46.8679 17.0025C45.8211 14.4753 44.0484 12.3153 41.7741 10.7956C39.4997 9.27592 36.8257 8.46478 34.0903 8.46478C30.4223 8.46478 26.9045 9.9219 24.3108 12.5156C21.7171 15.1093 20.26 18.6271 20.26 22.2951Z" fill="url(#paint0_radial)"/>
<path d="M40.8396 23.6505C40.7768 23.0291 40.5886 22.4268 40.2864 21.8802C40.001 21.3568 39.5682 20.9288 39.0417 20.6493C38.8875 20.5644 38.7254 20.4949 38.5576 20.4418C38.564 20.3728 38.564 20.3034 38.5576 20.2344C38.5585 20.0391 38.4842 19.8509 38.3501 19.7088C38.044 19.4821 37.664 19.3785 37.2852 19.4184C35.7498 19.5227 34.2295 19.7869 32.7489 20.2067C30.8875 20.5522 29.1313 21.3238 27.6178 22.4611C27.495 22.606 27.4276 22.7898 27.4276 22.9797C27.4276 23.1697 27.495 23.3534 27.6178 23.4984L27.7146 23.5952C27.417 23.9625 27.196 24.3857 27.0646 24.8399C26.8655 25.5077 26.8655 26.219 27.0646 26.8868C27.294 27.6235 27.7139 28.2867 28.2817 28.8092C29.248 29.6093 30.4064 30.1432 31.6424 30.3582C31.9085 30.788 32.2923 31.1324 32.7483 31.3506C33.2043 31.5688 33.7133 31.6516 34.2149 31.5891C34.7479 31.5853 35.2781 31.5109 35.7915 31.3678C37.1763 31.0625 38.3984 30.2543 39.2215 29.0996C39.5557 28.6101 39.6939 28.0128 39.6087 27.4262C39.9614 26.9349 40.2496 26.4003 40.4662 25.8357C40.7813 25.153 40.9102 24.3991 40.8396 23.6505Z" fill="#F79721"/>
<path d="M30.0933 28.3251C30.0916 28.6435 30.0006 28.9549 29.8306 29.2241L30.2317 29.4039V28.0209H30.0519C30.0807 28.1197 30.0947 28.2222 30.0933 28.3251Z" fill="#FDD106"/>
<path d="M38.8619 28.09C38.6462 28.7385 38.2109 29.2913 37.631 29.6528C36.8699 30.1752 35.9501 30.4149 35.0309 30.3305C35.6823 30.2087 36.3117 29.9895 36.898 29.6805C37.3625 29.4456 37.7761 29.1213 38.115 28.7262C37.3616 29.3568 36.4263 29.73 35.4458 29.7911C36.5525 29.5109 37.5586 28.9264 38.3501 28.1038C38.6682 27.7719 38.931 27.4815 39.1385 27.2187C39.4207 26.8545 39.6619 26.4602 39.8577 26.0431L39.4566 26.3197C39.4078 26.3464 39.3531 26.3603 39.2975 26.3603C39.2419 26.3603 39.1873 26.3464 39.1385 26.3197L38.7374 26.1953V26.458C38.753 26.5298 38.7453 26.6047 38.7155 26.6719C38.6856 26.739 38.6352 26.7949 38.5714 26.8314C38.2672 27.0112 37.9629 27.2049 37.6448 27.3708C37.5967 27.3914 37.545 27.402 37.4927 27.402C37.4404 27.402 37.3886 27.3914 37.3405 27.3708C37.31 27.4754 37.2407 27.5644 37.1469 27.6198C36.4831 27.9655 35.7639 28.2698 35.1415 28.5464C35.0878 28.5732 35.0286 28.5871 34.9686 28.5871C34.9086 28.5871 34.8494 28.5732 34.7957 28.5464C34.7481 28.5114 34.7095 28.4655 34.683 28.4126C34.6566 28.3597 34.6431 28.3013 34.6436 28.2421V26.9421L34.284 27.0666V28.6847C34.2827 28.7609 34.2582 28.8348 34.2137 28.8966C34.1692 28.9584 34.1069 29.0051 34.0351 29.0305L33.1776 29.2932C33.1281 29.3176 33.0737 29.3303 33.0186 29.3303C32.9634 29.3303 32.909 29.3176 32.8595 29.2932C32.8129 29.2604 32.7749 29.2169 32.7484 29.1664C32.722 29.1159 32.7079 29.0598 32.7074 29.0028V27.6198L32.3063 27.7166L31.7807 27.8272V29.3624C31.7823 29.4469 31.7541 29.5293 31.701 29.595C31.6478 29.6608 31.5733 29.7057 31.4903 29.722H31.186C31.473 29.8011 31.7638 29.8657 32.0573 29.9156L32.7627 29.9986C32.8393 30.0732 32.9282 30.1341 33.0255 30.1784C33.281 30.2848 33.5517 30.3501 33.8276 30.372C33.3354 30.4181 32.84 30.4181 32.3478 30.372C32.8324 30.7245 33.3972 30.9508 33.9912 31.0305C34.5852 31.1102 35.1896 31.0407 35.75 30.8284C36.9965 30.5193 38.0908 29.7734 38.8342 28.7262C39.0438 28.4263 39.1767 28.0797 39.2215 27.7166C39.0832 27.8687 38.9863 27.9794 38.8619 28.09Z" fill="#FDD106"/>
<path d="M27.4932 17.5513C27.3767 17.4892 27.2878 17.3855 27.2442 17.2609C27.1638 16.9233 27.2132 16.5679 27.3825 16.2651C27.6453 15.698 28.0879 15.3938 28.4336 15.5321L28.5304 15.6012L28.7794 15.7672C28.8837 15.8237 28.9627 15.9176 29.0007 16.03C29.0714 16.3483 29.0273 16.6814 28.8762 16.9704C28.6273 17.496 28.2124 17.7864 27.8804 17.6619L27.6038 17.579H27.507L27.4932 17.5513Z" fill="#F79721"/>
<path d="M27.6039 17.2885C27.7699 17.2885 28.0603 17.0949 28.2539 16.68C28.3818 16.4433 28.4257 16.1703 28.3784 15.9055C28.367 15.8663 28.3426 15.8322 28.3093 15.8087C28.1433 15.7395 27.8252 15.9608 27.6177 16.4034C27.4865 16.639 27.4471 16.9149 27.5071 17.1779C27.5103 17.2055 27.521 17.2317 27.5381 17.2536C27.5552 17.2756 27.5779 17.2924 27.6039 17.3024V17.2885Z" fill="#FDD106"/>
<path d="M28.7241 16.1268C28.7241 16.1268 28.7241 16.03 28.6273 16.0161H28.5581C28.5865 16.2882 28.5336 16.5625 28.406 16.8045C28.301 17.0581 28.1228 17.2748 27.8943 17.4268H27.9634C28.1017 17.4268 28.406 17.2747 28.5858 16.8736C28.7234 16.6506 28.7727 16.3843 28.7241 16.1268Z" fill="#FDD106"/>
<path d="M40.0927 19.0726L40.2033 18.9205L40.2725 18.8375C40.2725 18.7269 40.3693 18.4779 39.9682 18.1598C39.8576 18.072 39.7369 17.9977 39.6086 17.9386C39.4253 17.835 39.2231 17.7691 39.0139 17.7449C38.6682 17.7449 38.5437 17.8417 38.5022 17.9247C38.4976 17.9568 38.4976 17.9894 38.5022 18.0215V18.2152C38.5022 18.3258 38.5022 18.5471 38.8065 18.8375C38.9049 18.9177 39.0115 18.9873 39.1246 19.045C39.3082 19.1363 39.5037 19.2015 39.7054 19.2386C39.7786 19.2441 39.8519 19.2319 39.9194 19.203C39.9868 19.1741 40.0462 19.1294 40.0927 19.0726Z" fill="#F79721"/>
<path d="M39.8714 18.9205H39.7746C39.5808 18.8948 39.3933 18.8339 39.2214 18.7407C39.1036 18.6783 38.9923 18.6042 38.8894 18.5194C38.8324 18.4809 38.7811 18.4343 38.7373 18.3811V18.2981C38.7373 18.2981 38.7373 18.4779 38.9586 18.6162C39.0433 18.687 39.1362 18.7474 39.2352 18.796C39.3889 18.8717 39.5515 18.9274 39.7193 18.962C39.8576 18.962 39.9129 18.962 39.9267 18.962L39.8714 18.9205Z" fill="#FDD106"/>
<path d="M38.7375 18.0354C38.7485 18.1116 38.788 18.1808 38.8481 18.229C38.9719 18.3586 39.1169 18.4662 39.2768 18.5471C39.4391 18.6371 39.6179 18.6935 39.8024 18.7131C39.8364 18.7312 39.8744 18.7407 39.913 18.7407C39.9516 18.7407 39.9896 18.7312 40.0237 18.7131C40.0237 18.7131 40.0237 18.5194 39.7886 18.3673C39.6924 18.2948 39.5907 18.23 39.4843 18.1737C39.322 18.0837 39.1433 18.0272 38.9587 18.0077C38.8204 18.0077 38.7513 18.0077 38.7236 18.0077L38.7375 18.0354Z" fill="#FDD106"/>
<path d="M24.7411 23.7749C24.6292 23.7529 24.5301 23.6885 24.4645 23.5952L24.2432 23.3462C24.2047 23.3252 24.1752 23.2907 24.1603 23.2494C24.0911 23.1526 24.022 22.9175 24.3124 22.544C24.5268 22.2945 24.7788 22.0798 25.0592 21.9079C25.4607 21.622 25.9514 21.4895 26.4423 21.5344C26.5021 21.5427 26.5594 21.5645 26.6096 21.598C26.6599 21.6315 26.702 21.676 26.7327 21.7281C26.7379 21.7694 26.7379 21.8112 26.7327 21.8525L26.8433 22.1568C26.8433 22.2674 26.9402 22.4887 26.6774 22.8207C26.4831 23.0628 26.2435 23.2648 25.972 23.4154C25.6117 23.6658 25.1796 23.792 24.7411 23.7749Z" fill="#F79721"/>
<path d="M24.3815 23.1249C24.4449 23.1519 24.5131 23.1659 24.582 23.1659C24.6509 23.1659 24.7191 23.1519 24.7825 23.1249C25.0777 23.068 25.3594 22.9554 25.6124 22.793C26.1794 22.4472 26.4837 22.0323 26.4422 21.8525C26.4125 21.8104 26.3681 21.7808 26.3177 21.7696C25.912 21.7575 25.5136 21.879 25.1836 22.1153C24.9261 22.2687 24.6969 22.4651 24.5059 22.6962C24.3676 22.8622 24.3123 23.0281 24.3676 23.1111L24.3815 23.1249Z" fill="#FDD106"/>
<path d="M26.6081 22.2813V22.1568C26.4071 22.5011 26.1152 22.7834 25.7645 22.9728C25.4949 23.138 25.2008 23.2594 24.8931 23.3324C24.8061 23.3459 24.7174 23.3459 24.6304 23.3324L24.741 23.443C24.7538 23.4614 24.7702 23.477 24.7893 23.4889C24.8083 23.5008 24.8295 23.5087 24.8517 23.5122C25.2259 23.5131 25.5918 23.4023 25.9028 23.1941C26.139 23.0505 26.3494 22.8682 26.5251 22.6547C26.5943 22.4887 26.6496 22.3504 26.6081 22.2813Z" fill="#FDD106"/>
<path d="M41.8492 19.8748C41.7719 19.9211 41.6835 19.9456 41.5934 19.9456C41.5032 19.9456 41.4148 19.9211 41.3375 19.8748L41.0194 19.7641H40.9088C40.5077 19.529 40.729 18.7684 41.1024 18.1737C41.2993 17.833 41.5742 17.5439 41.9045 17.33C41.9871 17.277 42.0831 17.2488 42.1812 17.2488C42.2792 17.2488 42.3752 17.277 42.4578 17.33L42.5546 17.413L42.7897 17.6343C42.8865 17.7173 43.0248 17.8832 42.9418 18.2981C42.8743 18.5989 42.7525 18.8848 42.5822 19.1418C42.4006 19.4565 42.15 19.7261 41.8492 19.9301V19.8748Z" fill="#F79721"/>
<path d="M41.0471 19.529C41.2269 19.529 41.6418 19.2801 41.9876 18.7269C42.3333 18.1737 42.4301 17.6619 42.3057 17.5098C42.3057 17.5098 42.1397 17.5098 42.0152 17.5098C41.727 17.7027 41.486 17.9579 41.3099 18.2566C40.9365 18.8514 40.8673 19.3907 41.0333 19.4875L41.0471 19.529Z" fill="#FDD106"/>
<path d="M42.6238 17.7864L42.527 17.7034C42.5018 18.1008 42.3678 18.4835 42.1397 18.8099C41.9574 19.1286 41.7013 19.3989 41.3929 19.5982H41.3237H41.4482C41.4482 19.5982 41.6003 19.5982 41.711 19.5982C41.9806 19.4239 42.2037 19.1865 42.361 18.9067C42.5093 18.6713 42.6212 18.4148 42.6929 18.146C42.6929 17.9524 42.6929 17.8003 42.6929 17.7588L42.6238 17.7864Z" fill="#FDD106"/>
<path d="M26.3315 20.1652C25.9996 19.861 25.8751 19.5152 26.0134 19.2524L26.1379 18.9205C26.1329 18.8838 26.1329 18.8466 26.1379 18.8099C26.3315 18.4641 26.9124 18.4503 27.5209 18.8099L27.8252 19.0311C28.1848 19.3492 28.3231 19.7365 28.1709 19.9993L28.1018 20.0961L27.8805 20.3865C27.673 20.7046 27.1337 20.7184 26.6081 20.3865L26.3038 20.1791L26.3315 20.1652Z" fill="#F79721"/>
<path d="M26.4145 18.9482C26.3453 19.1694 26.5943 19.5152 26.9815 19.7365C27.1747 19.8518 27.3931 19.9183 27.6177 19.9301C27.7368 19.9426 27.856 19.9079 27.9496 19.8333C28.0464 19.6812 27.9496 19.4184 27.673 19.1971L27.3964 19.0035C26.9815 18.7545 26.5251 18.7407 26.4006 19.0035L26.4145 18.9482Z" fill="#FDD106"/>
<path d="M27.6868 20.1929L27.756 20.0961H27.6038C27.3547 20.0782 27.1132 20.0025 26.8985 19.8748C26.7962 19.8136 26.6991 19.7442 26.608 19.6673C26.4719 19.5494 26.3633 19.4031 26.2899 19.2386V19.3631C26.207 19.5014 26.2899 19.7365 26.5527 19.9578C26.6279 20.024 26.7116 20.0798 26.8017 20.1237C27.1889 20.345 27.6176 20.3727 27.7283 20.1237L27.6868 20.1929Z" fill="#FDD106"/>
<path d="M42.7066 14.1076C41.213 16.8736 27.8529 12.3788 28.6274 22.7653C29.3996 22.7695 30.1698 22.686 30.9232 22.5164C30.1764 13.5405 41.697 17.1641 42.7066 14.1076Z" fill="url(#paint1_radial)"/>
<path d="M42.7068 14.1076C41.6972 17.1641 30.1765 13.5405 30.9095 22.5164C31.5595 22.4058 32.2925 22.226 33.1224 22.0047C32.3064 14.2597 42.1674 17.5236 42.7068 14.1076Z" fill="url(#paint2_radial)"/>
<path d="M42.7066 14.1076C42.1673 17.5236 32.2924 14.2597 33.1222 22.0047L33.468 21.9079C34.1872 21.7004 34.851 21.493 35.3074 21.3132C34.5606 15.0342 42.6375 17.8556 42.7066 14.1076Z" fill="url(#paint3_radial)"/>
<path d="M42.7065 14.1076C42.6374 17.8556 34.5605 15.0342 35.3073 21.3132C36.0535 21.071 36.7684 20.7414 37.4372 20.3312C36.635 15.3523 43.1214 18.2013 42.7065 14.1076Z" fill="url(#paint4_radial)"/>
<path d="M42.6927 20.8014C42.7256 20.7198 42.7297 20.6294 42.7043 20.5452C42.6789 20.4609 42.6256 20.3878 42.5532 20.3379C42.4807 20.288 42.3934 20.2642 42.3057 20.2706C42.2179 20.2769 42.1349 20.3129 42.0703 20.3727C41.8076 20.6355 41.531 20.8844 41.2544 21.1195C41.2098 21.1642 41.1725 21.2155 41.1437 21.2717C41.0469 21.5344 40.9363 21.7834 40.8395 22.0462L40.7288 21.9632C40.6591 21.9105 40.5742 21.8819 40.4868 21.8819C40.3994 21.8819 40.3144 21.9105 40.2447 21.9632L39.3873 22.6132C39.3371 22.6467 39.2958 22.6919 39.2668 22.7449C39.2379 22.7979 39.2223 22.8571 39.2213 22.9175C38.9037 22.9797 38.6024 23.1068 38.3362 23.2909L37.0361 24.0654C36.9782 24.0939 36.9286 24.1369 36.8923 24.1902C36.8559 24.2435 36.834 24.3053 36.8287 24.3697C36.7761 24.3393 36.7165 24.3233 36.6558 24.3233C36.5951 24.3233 36.5355 24.3393 36.4829 24.3697C35.8796 24.6775 35.261 24.9544 34.6296 25.1995L34.519 25.2686H34.3807C33.5812 25.5824 32.758 25.8321 31.9189 26.0155C31.1395 26.2315 30.344 26.3841 29.5401 26.4719C29.4857 26.4755 29.4327 26.491 29.3849 26.5173C29.3371 26.5436 29.2957 26.58 29.2635 26.624V26.6932C29.0036 26.5383 28.7084 26.4526 28.406 26.4442C28.1963 26.4328 27.9866 26.4646 27.7897 26.5375C27.5928 26.6105 27.413 26.723 27.2614 26.8682C27.1097 27.0133 26.9894 27.1881 26.908 27.3816C26.8265 27.5751 26.7856 27.7833 26.7878 27.9932C26.7815 28.0576 26.7815 28.1224 26.7878 28.1868V26.6655C26.7899 26.5757 26.7607 26.4879 26.7052 26.4173C26.6497 26.3466 26.5713 26.2975 26.4836 26.2782C26.2085 26.233 25.9362 26.173 25.6676 26.0985C25.6077 26.0811 25.5443 26.0797 25.4837 26.0942C25.4231 26.1088 25.3673 26.1388 25.3218 26.1814C25.2694 26.221 25.2288 26.2741 25.2044 26.335C25.18 26.396 25.1728 26.4624 25.1835 26.5272L25.2527 27.0251V28.8783C25.253 28.9639 25.2817 29.047 25.3342 29.1146C25.3868 29.1821 25.4602 29.2304 25.5431 29.2518C26.1057 29.4048 26.679 29.5158 27.2581 29.5837C27.3173 29.5923 27.3778 29.5853 27.4336 29.5635C27.4893 29.5417 27.5385 29.5057 27.5762 29.4592C27.8135 29.631 28.0992 29.723 28.3922 29.722C28.6007 29.7216 28.8071 29.6798 28.9994 29.5991C29.1917 29.5184 29.3661 29.4003 29.5124 29.2518C29.8172 28.9356 29.9903 28.5153 29.9965 28.0762C30.0037 27.9841 30.0037 27.8916 29.9965 27.7996H30.1071V29.1826C30.1054 29.2372 30.1156 29.2915 30.1371 29.3417C30.1586 29.3918 30.1909 29.4367 30.2316 29.4731C30.2714 29.5115 30.3196 29.5403 30.3724 29.5571C30.4252 29.5739 30.4811 29.5782 30.5359 29.5699C30.8263 29.5699 31.1167 29.4869 31.3933 29.4454C31.485 29.4294 31.5682 29.382 31.6288 29.3113C31.6893 29.2407 31.7234 29.1512 31.7253 29.0581V27.5368L32.2232 27.4262L32.5551 27.357V28.74C32.5553 28.799 32.569 28.8572 32.5951 28.91C32.6213 28.9629 32.6591 29.0091 32.7058 29.0451C32.7525 29.0811 32.8068 29.106 32.8646 29.1179C32.9223 29.1297 32.982 29.1282 33.0391 29.1135L33.9105 28.8507C33.9882 28.8243 34.0555 28.7739 34.1027 28.7068C34.15 28.6397 34.1747 28.5593 34.1732 28.4773V26.8453L34.4913 26.7346V28.007C34.4902 28.0716 34.5047 28.1356 34.5336 28.1933C34.5625 28.2511 34.6049 28.3011 34.6573 28.339C34.7124 28.3692 34.7742 28.3851 34.8371 28.3851C34.8999 28.3851 34.9618 28.3692 35.0169 28.339C35.703 28.0698 36.3726 27.7604 37.0223 27.4123C37.0698 27.3897 37.1118 27.3569 37.1452 27.3163C37.1787 27.2757 37.2028 27.2282 37.2159 27.1772C37.264 27.1978 37.3157 27.2084 37.368 27.2084C37.4203 27.2084 37.4721 27.1978 37.5202 27.1772L38.4606 26.624C38.5227 26.5824 38.5714 26.5236 38.6009 26.4549C38.6303 26.3862 38.6393 26.3104 38.6266 26.2368V25.9878L39.0277 26.1123C39.0798 26.136 39.1364 26.1482 39.1936 26.1482C39.2509 26.1482 39.3075 26.136 39.3596 26.1123C39.7054 25.8772 40.065 25.6144 40.3969 25.3654C40.4457 25.3095 40.478 25.241 40.4902 25.1678C40.5024 25.0945 40.494 25.0193 40.466 24.9505C40.5223 24.9847 40.5869 25.0028 40.6527 25.0028C40.7186 25.0028 40.7832 24.9847 40.8395 24.9505L41.7246 24.2314C41.7708 24.1844 41.8059 24.1278 41.8274 24.0656C41.849 24.0034 41.8564 23.9372 41.8491 23.8718V23.4569V23.1803C42.0842 22.3781 42.4023 21.6036 42.6927 20.8014Z" fill="#2C3588"/>
<path d="M26.2485 28.4911L27.0645 28.6294L27.1475 29.1964C26.587 29.1329 26.0321 29.0265 25.4879 28.8783V26.9974C25.4879 26.8176 25.4879 26.6517 25.4187 26.4719L26.2485 26.6655V28.4911ZM29.5401 28.0624C29.542 28.2281 29.5107 28.3926 29.4481 28.5462C29.3855 28.6997 29.2929 28.8392 29.1756 28.9564C29.0584 29.0737 28.9189 29.1663 28.7654 29.2289C28.6119 29.2915 28.4474 29.3228 28.2816 29.3209C27.9442 29.2801 27.6337 29.1166 27.4092 28.8615C27.1848 28.6065 27.0621 28.2777 27.0645 27.9379C27.0622 27.7787 27.093 27.6208 27.1549 27.4742C27.2169 27.3276 27.3086 27.1955 27.4244 27.0862C27.5401 26.977 27.6774 26.893 27.8273 26.8396C27.9772 26.7862 28.1367 26.7646 28.2954 26.7761C28.463 26.7741 28.6292 26.8063 28.7839 26.8707C28.9386 26.9352 29.0785 27.0305 29.195 27.1509C29.3116 27.2714 29.4023 27.4143 29.4616 27.571C29.521 27.7278 29.5477 27.8949 29.5401 28.0624ZM28.2954 27.4262C28.0741 27.4262 27.8943 27.7028 27.8943 28.0624C27.8943 28.4219 28.0741 28.7262 28.2954 28.74C28.5167 28.7539 28.6827 28.4496 28.6965 28.09C28.7103 27.7304 28.5167 27.4262 28.2954 27.4262ZM34.5052 25.7389C33.6912 26.0554 32.8544 26.3097 32.0019 26.4995C31.1874 26.6815 30.3595 26.7971 29.5263 26.8453L29.6093 27.3985L30.4391 27.3293V29.1549L31.2828 29.0305V27.2049L32.0849 27.0527C32.3477 27.0527 32.6243 26.9283 32.8871 26.8453V28.6847L33.6892 28.4081V26.5687C33.9797 26.4857 34.2563 26.3751 34.5467 26.2644C34.5744 26.0984 34.5329 25.9187 34.5052 25.7389ZM34.8372 26.1261L34.7542 25.642C35.3974 25.3934 36.0255 25.1071 36.6351 24.7846C36.6351 24.9644 36.7042 25.1303 36.7319 25.3101C36.3861 25.4899 36.0266 25.6559 35.6808 25.808V26.1676L36.6628 25.6835C36.6628 25.8495 36.7319 26.0293 36.7596 26.1953C36.4 26.3889 36.0404 26.5548 35.6808 26.7208V27.0942L36.7181 26.5825L36.8011 27.0942C36.1628 27.4325 35.5072 27.7372 34.8372 28.007V26.1261ZM40.0788 25.0197C39.7469 25.2686 39.4012 25.5176 39.0692 25.7389L38.5022 25.5591L38.1288 25.7942L38.2118 26.2506C37.9075 26.4442 37.6032 26.624 37.299 26.79V24.9505L37.216 24.4803C37.6585 24.2406 38.1195 23.9778 38.599 23.692C39.2767 23.2632 39.8161 23.2771 39.8161 23.775C39.7683 24.1511 39.6148 24.5059 39.3735 24.7984L40.0788 25.0197ZM38.9448 24.342C38.9448 24.1484 38.7235 24.1345 38.433 24.342C38.3352 24.4119 38.2336 24.4766 38.1288 24.5356V25.2548C38.2352 25.1984 38.3369 25.1337 38.433 25.0612C38.5654 24.9856 38.6797 24.8821 38.768 24.7579C38.8564 24.6337 38.9167 24.4918 38.9448 24.342ZM41.3927 23.0696V23.443C41.3927 23.5952 41.3927 23.7473 41.4619 23.8856C41.1853 24.1345 40.8948 24.3835 40.6044 24.6048V23.7196L39.6086 22.9728L40.4799 22.3089L41.0055 22.71L41.5034 21.4515C41.7938 21.2163 42.0704 20.9536 42.3332 20.7046C41.9874 21.4929 41.7108 22.2813 41.3927 23.0696Z" fill="white"/>
<path d="M30.9231 25.7389V24.508H31.2274V25.7527L30.9231 25.7389ZM31.8082 25.5867C31.5316 25.5867 31.5316 25.5037 31.5316 25.3101V24.7016C31.5402 24.5911 31.5402 24.4801 31.5316 24.3697L31.8497 24.259C31.8497 24.259 31.8497 24.3973 31.8497 24.4803V25.158C31.8497 25.3239 31.8497 25.3654 31.9189 25.3516V25.5314C31.8887 25.5532 31.8562 25.5718 31.8221 25.5867H31.8082ZM32.4583 25.4484C32.1817 25.4484 32.1817 25.3793 32.1817 25.1995V24.5771C32.1902 24.4666 32.1902 24.3557 32.1817 24.2452L32.4998 24.1207C32.5075 24.1943 32.5075 24.2684 32.4998 24.342V25.0197C32.4998 25.1856 32.4998 25.2271 32.5689 25.1995C32.563 25.2546 32.563 25.3103 32.5689 25.3654C32.5392 25.3959 32.5068 25.4237 32.4721 25.4484H32.4583ZM33.0115 24.3143C32.9913 24.3207 32.97 24.3224 32.9492 24.3192C32.9283 24.3161 32.9084 24.3082 32.8911 24.2962C32.8737 24.2842 32.8593 24.2683 32.849 24.2499C32.8387 24.2315 32.8328 24.2109 32.8317 24.1899C32.8346 24.1371 32.8533 24.0865 32.8853 24.0446C32.9174 24.0026 32.9614 23.9713 33.0115 23.9547C33.1221 23.9547 33.1913 23.9547 33.1913 24.0792C33.1864 24.1295 33.1686 24.1776 33.1395 24.2188C33.1104 24.26 33.071 24.2929 33.0253 24.3143H33.0115ZM32.8455 25.324V24.425L33.1636 24.3143V25.241L32.8455 25.324ZM33.9796 24.9782V24.3973C33.9796 24.3005 33.9796 24.3143 33.8966 24.3282L33.7998 24.4111V25.0473L33.4817 25.1442V24.5633C33.4899 24.4666 33.4899 24.3695 33.4817 24.2728L33.7721 24.1345C33.7735 24.1576 33.7735 24.1807 33.7721 24.2037C33.8555 24.1312 33.9486 24.0707 34.0488 24.0239C34.27 24.0239 34.3115 24.0239 34.3115 24.1899V24.8675L33.9796 24.9782ZM34.9892 24.6186C34.7264 24.7292 34.5605 24.6186 34.5605 24.3143C34.5655 24.1736 34.6096 24.0369 34.6877 23.9197C34.7659 23.8025 34.875 23.7093 35.003 23.6505C35.2382 23.5537 35.4456 23.6505 35.4456 23.9133C35.4533 24.0536 35.4225 24.1935 35.3568 24.3177C35.291 24.442 35.1926 24.546 35.0722 24.6186H34.9892ZM34.9892 23.8718C34.9201 23.8718 34.8786 23.9547 34.8786 24.1899C34.8786 24.425 34.8786 24.4388 34.9892 24.3973C35.0999 24.3558 35.086 24.2728 35.086 24.0654C35.086 23.8579 35.0722 23.8441 35.0722 23.8718H34.9892ZM35.8329 23.2217C35.736 23.2217 35.6531 23.2217 35.6531 23.1388C35.6598 23.0838 35.6796 23.0312 35.7109 22.9854C35.7422 22.9397 35.784 22.9022 35.8329 22.876C35.9435 22.876 36.0127 22.876 36.0127 22.959C36.0112 23.012 35.9965 23.0638 35.97 23.1097C35.9434 23.1556 35.9058 23.1941 35.8605 23.2217H35.8329ZM35.6807 24.2728V23.3739L35.9988 23.1941V24.1207L35.6807 24.2728ZM36.635 23.8164C36.5069 23.8826 36.3643 23.9158 36.2201 23.9133L36.3308 23.6367C36.4306 23.6618 36.5352 23.6618 36.635 23.6367C36.6602 23.6256 36.6823 23.6084 36.6992 23.5866C36.7161 23.5649 36.7273 23.5393 36.7318 23.5122C36.7318 23.5122 36.7318 23.5122 36.6212 23.5122H36.4967C36.3446 23.5122 36.2754 23.5122 36.2754 23.3877C36.2905 23.2746 36.3339 23.1671 36.4016 23.0752C36.4693 22.9834 36.5591 22.9101 36.6627 22.8622C36.7732 22.7999 36.8959 22.7622 37.0223 22.7515C36.996 22.8367 36.9637 22.9199 36.9255 23.0005C36.8525 22.9848 36.7771 22.9848 36.7042 23.0005C36.6836 23.0088 36.6653 23.0219 36.6509 23.0387C36.6364 23.0556 36.6262 23.0757 36.6212 23.0973C36.6212 23.0973 36.6212 23.0973 36.718 23.0973H36.8286C36.9946 23.0973 37.0638 23.0973 37.0638 23.2217C37.0498 23.3459 37.0061 23.4648 36.9362 23.5683C36.8664 23.6719 36.7725 23.757 36.6627 23.8164H36.635Z" fill="#2C3588"/>
<path d="M77.0474 55.3358L75.0005 55.6124L73.2578 59.8998L71.5567 56.0826L69.3577 56.3869L67.864 64.4638L70.1322 64.0212L70.8514 59.4572H70.879L72.8014 63.5095L73.6589 63.3435L75.5952 58.6827H75.6228L76.2037 62.8456L78.2229 62.4584L77.0474 55.3358Z" fill="#221F1F"/>
<path d="M83.2157 54.4783L79.0527 55.0591V62.2924L83.2157 61.4902V59.9412L80.989 60.3423V59.1114L83.105 58.7518V57.2167L80.989 57.5486V56.3592L83.2157 56.0273V54.4783Z" fill="#221F1F"/>
<path d="M88.1116 53.6208H87.6276H87.4754C86.96 53.6888 86.4598 53.8431 85.9956 54.0772C85.0976 54.5485 84.4073 55.3374 84.0593 56.29C83.8747 56.7999 83.7811 57.3383 83.7827 57.8805C83.7737 58.3285 83.8487 58.7741 84.004 59.1944C84.1315 59.5628 84.3394 59.8982 84.6125 60.1764C84.8776 60.4392 85.1993 60.6378 85.553 60.7572C85.9392 60.8914 86.3481 60.9478 86.7562 60.9232H87.0882H87.2403H87.4063C87.6799 60.8678 87.9482 60.7892 88.2084 60.6881C88.4591 60.5859 88.6998 60.4609 88.9276 60.3147C89.3867 59.9886 89.7768 59.575 90.0755 59.0976C90.2043 58.8789 90.3198 58.6526 90.4213 58.4199C90.5004 58.2043 90.5606 57.9822 90.6011 57.7561C90.6527 57.5333 90.6851 57.3066 90.6979 57.0784C90.6979 56.8433 90.6979 56.622 90.6979 56.373L87.3786 56.9124V58.2954L88.7616 58.0603C88.7469 58.2423 88.7 58.4202 88.6233 58.5859C88.5595 58.7445 88.4601 58.8865 88.3329 59.0008C88.21 59.1217 88.0703 59.2242 87.918 59.3051C87.7508 59.383 87.5741 59.4388 87.3924 59.471H87.1297C86.9089 59.4843 86.6888 59.4364 86.4935 59.3327C86.3057 59.2345 86.1408 59.0979 86.0094 58.9316C85.8826 58.7445 85.7847 58.5394 85.719 58.3231C85.6511 58.0943 85.6184 57.8564 85.6221 57.6178C85.625 57.3468 85.6622 57.0772 85.7328 56.8156C85.8148 56.5549 85.9262 56.3043 86.0647 56.0688C86.2122 55.843 86.3997 55.6462 86.6179 55.4879C86.8433 55.3362 87.0976 55.2327 87.3648 55.1836H87.6276C87.7558 55.1627 87.8866 55.1627 88.0148 55.1836C88.1362 55.2212 88.249 55.2823 88.3467 55.3634C88.4444 55.4403 88.5326 55.5285 88.6095 55.6262C88.6822 55.7415 88.7469 55.8616 88.8031 55.9858L90.3936 55.1145C90.2911 54.8843 90.156 54.67 89.9925 54.4783C89.8451 54.2931 89.6674 54.1341 89.467 54.008C89.2695 53.8854 89.0552 53.7922 88.8308 53.7314C88.5934 53.6578 88.3463 53.6205 88.0978 53.6208" fill="#221F1F"/>
<path d="M92.9937 57.1752L93.6437 55.0177L94.2661 56.9539L92.9798 57.1752H92.9937ZM94.5427 52.9154L92.8415 53.1505L90.3936 60.0796L92.1085 59.7615L92.5234 58.5444L94.6948 58.1433L95.082 59.1668L96.6587 58.8625L94.5427 52.9154Z" fill="#221F1F"/>
<path d="M98.5536 55.1836V53.6485H98.8025H99.2728H99.494C99.5553 53.6755 99.6115 53.7129 99.66 53.7591C99.7078 53.8218 99.7452 53.8919 99.7706 53.9666C99.7799 54.077 99.7799 54.188 99.7706 54.2985C99.777 54.4459 99.7486 54.5928 99.6877 54.7272C99.6454 54.8371 99.5675 54.9297 99.4664 54.99C99.37 55.0557 99.2621 55.1026 99.1483 55.1283H98.7749H98.5259L98.5536 55.1836ZM99.7568 52.1686H99.2728L97.1152 52.6112V58.8487L98.4983 58.5721V56.4698L99.3004 56.3315C99.5803 56.2882 99.8513 56.1995 100.103 56.0688C100.329 55.9515 100.531 55.7919 100.697 55.5985C100.858 55.3914 100.979 55.1572 101.057 54.907C101.132 54.5992 101.169 54.2834 101.168 53.9666C101.176 53.7095 101.143 53.4527 101.071 53.2059C101.015 53.0066 100.916 52.8223 100.78 52.6665C100.655 52.5259 100.499 52.4169 100.324 52.3484C100.133 52.2765 99.9326 52.2345 99.7292 52.2239" fill="#221F1F"/>
<path d="M103.145 51.726L101.831 51.9058V57.8806L104.68 57.3273V56.0411L103.145 56.3177V51.726Z" fill="#221F1F"/>
<path d="M106.34 51.2835L105.095 51.4494V57.2444L106.34 57.0092V51.2835Z" fill="#221F1F"/>
<path d="M109.715 50.8132L107.128 51.1728V56.8432L109.715 56.3454V55.1283L108.332 55.3772V54.4091L109.646 54.1878V52.9708L108.332 53.1782V52.2378L109.715 52.0303V50.8132Z" fill="#221F1F"/>
<path d="M111.54 52.9984V51.6154H111.914H112.093C112.151 51.6342 112.204 51.6675 112.245 51.7122C112.301 51.7585 112.34 51.8216 112.356 51.892C112.373 51.9788 112.373 52.068 112.356 52.1548C112.381 52.2733 112.381 52.3958 112.356 52.5144C112.324 52.6105 112.261 52.6933 112.176 52.7495C112.11 52.8136 112.029 52.861 111.941 52.8878L111.665 52.9569H111.568L111.54 52.9984ZM112.453 50.426H112.107L110.448 50.6611V56.1932L111.568 55.9858V53.9112L112.522 55.7922L113.905 55.5294L112.619 53.5793C112.763 53.523 112.895 53.4383 113.006 53.3304C113.118 53.2166 113.211 53.0859 113.283 52.9431C113.365 52.791 113.426 52.6281 113.463 52.4591C113.477 52.2842 113.477 52.1084 113.463 51.9335C113.467 51.7185 113.439 51.504 113.38 51.2973C113.337 51.136 113.262 50.9853 113.158 50.8547C113.063 50.7399 112.945 50.6458 112.812 50.5781C112.672 50.5186 112.522 50.4813 112.37 50.4675" fill="#221F1F"/>
<path d="M53.2315 58.738L53.3698 61.1998C53.4335 60.9374 53.512 60.6788 53.6049 60.4253L54.2826 58.572L55.389 58.4199L55.5965 60.9094C55.6509 60.6611 55.7202 60.4163 55.8039 60.1764L56.4678 58.3093L57.9614 58.088L55.9699 62.5967L54.7113 62.8041L54.573 60.5083C54.5294 60.7201 54.4693 60.9282 54.3932 61.1307L53.7709 62.9563L52.5538 63.1637L51.7378 59.0146L53.2315 58.738Z" fill="#EE3E34"/>
<path d="M58.321 57.9912L59.7732 57.7699L59.1647 62.002L57.7263 62.2509L58.321 57.9912Z" fill="#EE3E34"/>
<path d="M60.1743 57.7284L63.217 57.272L63.0096 58.6273L62.2212 58.7103L61.8063 61.5732L60.3541 61.8083L60.7829 58.9316L59.9807 59.0976L60.1743 57.7284Z" fill="#EE3E34"/>
<path d="M63.5905 57.2167L64.9873 57.0092L64.7799 58.4061L65.665 58.2678L65.8725 56.8848L67.2693 56.6773L66.647 60.7573L65.2501 60.9924L65.4714 59.554L64.5863 59.6923L64.365 61.1307L62.9819 61.3658L63.5905 57.2167Z" fill="#EE3E34"/>
<path d="M25.9166 8.18817C22.9649 9.85321 20.7224 12.5383 19.61 15.7395C19.61 15.7395 14.9906 11.4245 11.3118 11.4245C11.3118 11.4245 5.50304 10.5255 7.0797 17.3992L7.16268 17.7311L7.90952 20.8014C7.21013 20.1957 6.70499 19.3971 6.45733 18.5056C5.69667 15.6565 5.79348 10.4425 7.60525 8.36796C10.966 4.5093 16.3599 4.38483 20.8409 5.94765C21.6511 6.23665 22.4452 6.56906 23.2197 6.94344C23.5931 7.1094 25.64 8.40945 25.9166 8.32647" fill="#F79721"/>
<path d="M9.07135 13.1947C8.84686 13.3844 8.63867 13.5926 8.44898 13.8171C7.94294 14.6264 7.5388 15.495 7.24575 16.4034C5.50313 21.3961 9.22348 27.274 12.0034 31.2018C13.2323 33.146 14.67 34.95 16.2908 36.5818C14.0822 33.4687 12.0461 30.2368 10.1916 26.9006C8.25435 22.5964 7.85874 17.7564 9.07135 13.1947Z" fill="#D2272F"/>
<path d="M48.7229 29.7773C48.7229 29.7773 42.8865 38.7809 29.7615 37.2733C29.7615 37.2733 30.9924 39.1128 37.2437 39.1128C37.2437 39.1128 47.2845 37.8819 48.7229 29.7773Z" fill="#F79721"/>
<path d="M20.8408 47.8397C20.8408 47.8397 32.2232 52.6112 38.5713 52.6112V53.7314C38.5713 53.7314 26.2208 53.275 20.8408 47.895" fill="#F79721"/>
<path d="M35.4456 47.7844C32.2359 47.7436 29.0702 47.0323 26.1516 45.696C21.4518 43.4921 17.2246 40.3967 13.7044 36.5818C10.5128 33.3515 7.8813 29.6122 5.91788 25.5176C4.12246 21.6933 3.30959 17.4816 3.55289 13.2639C4.4242 3.31989 14.2161 3.12627 14.2161 3.12627C21.9611 2.35177 29.1943 7.57963 29.1943 7.57963C28.6719 7.58498 28.1536 7.67369 27.6591 7.84241C27.6591 7.84241 20.6333 3.43053 13.7044 4.09439C11.3397 4.35026 9.12956 5.39343 7.429 7.05637C5.72844 8.71931 4.6361 10.9055 4.32739 13.2639C4.32739 13.2639 3.15181 22.544 11.45 32.6263C11.45 32.6263 18.8907 41.298 25.2803 43.9534C25.2803 43.9534 27.8251 45.1705 26.6634 43.9534L24.5058 42.5704C24.5058 42.5704 17.2449 37.3978 13.5522 30.3997C11.7561 27.2853 10.5291 23.8759 9.92867 20.3312C9.92867 20.3312 9.07119 13.8863 10.3712 12.1436C10.3712 12.1436 10.9383 11.8394 12.9437 12.8075C12.9437 12.8075 18.4758 15.781 19.7067 17.6758C19.7067 17.6758 19.4993 18.7545 19.7067 18.962C18.5729 17.6957 17.3019 16.5593 15.9172 15.5736L12.2245 13.4299L11.0351 13.1671C10.6953 14.3334 10.578 15.5533 10.6893 16.763C10.6893 16.763 9.91484 22.4472 14.3267 29.722C17.7349 35.4524 22.4207 40.318 28.0187 43.9396C29.8873 45.3686 32.0079 46.4336 34.27 47.079C34.27 47.079 36.1095 47.7982 35.4456 47.7982" fill="#F79721"/>
<path d="M19.61 10.6638C17.1685 14.1554 16.1 18.4246 16.6089 22.6547C16.6089 22.6547 17.1068 26.3889 18.6834 27.3432C18.6834 27.3432 15.5992 21.5759 19.61 10.6638Z" fill="#D2272F"/>
<path d="M41.9874 23.6781C41.9873 23.6297 41.9971 23.5818 42.016 23.5373C42.0349 23.4927 42.0627 23.4524 42.0975 23.4189C42.1324 23.3853 42.1737 23.3591 42.2189 23.3419C42.2642 23.3246 42.3124 23.3167 42.3608 23.3186C42.4085 23.3166 42.4562 23.3246 42.5007 23.342C42.5452 23.3593 42.5856 23.3858 42.6194 23.4195C42.6532 23.4533 42.6796 23.4938 42.697 23.5383C42.7144 23.5828 42.7223 23.6304 42.7204 23.6781C42.7223 23.7259 42.7144 23.7735 42.697 23.818C42.6796 23.8625 42.6532 23.903 42.6194 23.9368C42.5856 23.9705 42.5452 23.997 42.5007 24.0143C42.4562 24.0317 42.4085 24.0397 42.3608 24.0377C42.3119 24.0417 42.2628 24.0352 42.2166 24.0188C42.1704 24.0023 42.1283 23.9762 42.093 23.9422C42.0577 23.9082 42.03 23.867 42.0118 23.8215C41.9936 23.776 41.9853 23.7271 41.9874 23.6781ZM42.3608 23.3877C42.3233 23.3877 42.2861 23.3952 42.2517 23.41C42.2172 23.4248 42.186 23.4464 42.1602 23.4736C42.1343 23.5007 42.1142 23.5329 42.1011 23.568C42.0881 23.6032 42.0823 23.6407 42.0842 23.6781C42.0842 23.7515 42.1133 23.8219 42.1652 23.8737C42.2171 23.9256 42.2874 23.9548 42.3608 23.9548C42.4342 23.9548 42.5045 23.9256 42.5564 23.8737C42.6083 23.8219 42.6374 23.7515 42.6374 23.6781C42.6421 23.6111 42.6222 23.5447 42.5815 23.4912C42.5408 23.4378 42.482 23.401 42.4161 23.3877H42.3608ZM42.3608 23.8718H42.264V23.4845H42.4161C42.5129 23.4845 42.5683 23.4845 42.5683 23.609C42.5707 23.6223 42.5699 23.6359 42.566 23.6488C42.562 23.6617 42.5549 23.6734 42.5454 23.6829C42.5358 23.6924 42.5241 23.6995 42.5112 23.7035C42.4984 23.7075 42.4847 23.7083 42.4714 23.7058L42.5683 23.8718H42.4853L42.3885 23.7058L42.3608 23.8718ZM42.3608 23.6505H42.4438C42.4438 23.6505 42.4438 23.6505 42.3746 23.6505H42.3608Z" fill="#2C3588"/>
<path d="M124.237 16.3066C124.239 16.6743 124.133 17.0345 123.93 17.3414C123.727 17.6482 123.438 17.8879 123.099 18.0299C122.76 18.1719 122.386 18.2097 122.025 18.1387C121.664 18.0676 121.333 17.8908 121.073 17.6308C120.813 17.3708 120.636 17.0393 120.565 16.6785C120.494 16.3177 120.532 15.944 120.674 15.6048C120.816 15.2656 121.055 14.9763 121.362 14.7737C121.669 14.5711 122.029 14.4644 122.397 14.4671C122.639 14.4653 122.879 14.5116 123.103 14.6034C123.327 14.6952 123.531 14.8306 123.702 15.0018C123.873 15.173 124.008 15.3765 124.1 15.6005C124.192 15.8245 124.238 16.0645 124.237 16.3066ZM123.891 16.3066C123.893 16.0073 123.807 15.7139 123.642 15.4639C123.478 15.2139 123.243 15.0185 122.967 14.9027C122.691 14.7869 122.386 14.7559 122.093 14.8136C121.799 14.8713 121.529 15.0152 121.317 15.2268C121.106 15.4385 120.962 15.7084 120.904 16.0021C120.846 16.2958 120.877 16.6 120.993 16.8761C121.109 17.1521 121.304 17.3874 121.554 17.552C121.804 17.7166 122.098 17.803 122.397 17.8003C122.793 17.8003 123.173 17.6429 123.453 17.3628C123.733 17.0826 123.891 16.7027 123.891 16.3066ZM122.784 16.5002L123.213 17.2332H122.84L122.439 16.5417H122.107V17.2332H121.761V15.2693H122.535C122.619 15.2674 122.703 15.2826 122.781 15.3139C122.859 15.3452 122.93 15.392 122.989 15.4514C123.049 15.5109 123.096 15.5818 123.127 15.6598C123.158 15.7379 123.173 15.8214 123.172 15.9055C123.19 16.0347 123.161 16.1662 123.09 16.2755C123.018 16.3849 122.91 16.4647 122.784 16.5002ZM122.107 16.2236H122.508C122.547 16.2296 122.588 16.2269 122.626 16.2158C122.665 16.2046 122.7 16.1852 122.731 16.1588C122.761 16.1325 122.785 16.1 122.802 16.0634C122.818 16.0268 122.826 15.9871 122.826 15.947C122.826 15.9064 122.818 15.8662 122.801 15.8291C122.785 15.7919 122.761 15.7585 122.731 15.7312C122.701 15.7038 122.666 15.683 122.627 15.6702C122.589 15.6573 122.548 15.6527 122.508 15.6565H122.107V16.2236Z" fill="#ED282A"/>
<path d="M118.275 50.8547C118.277 51.0974 118.231 51.3381 118.139 51.5629C118.048 51.7877 117.913 51.9921 117.742 52.1643C117.571 52.3366 117.367 52.4734 117.143 52.5667C116.919 52.66 116.679 52.708 116.436 52.708C115.946 52.7044 115.476 52.5079 115.13 52.1612C114.783 51.8144 114.586 51.3451 114.583 50.8547C114.623 50.3926 114.835 49.9623 115.176 49.6488C115.518 49.3353 115.965 49.1614 116.429 49.1614C116.893 49.1614 117.34 49.3353 117.682 49.6488C118.024 49.9623 118.235 50.3926 118.275 50.8547ZM117.93 50.8547C117.894 50.4816 117.72 50.1352 117.443 49.8832C117.165 49.6311 116.804 49.4914 116.429 49.4914C116.054 49.4914 115.693 49.6311 115.415 49.8832C115.138 50.1352 114.964 50.4816 114.929 50.8547C114.964 51.2278 115.138 51.5742 115.415 51.8263C115.693 52.0783 116.054 52.218 116.429 52.218C116.804 52.218 117.165 52.0783 117.443 51.8263C117.72 51.5742 117.894 51.2278 117.93 50.8547ZM116.823 51.0622L117.252 51.7952H116.879L116.491 51.1037H116.159V51.7952H115.8V49.8451H116.588C116.67 49.8432 116.752 49.858 116.829 49.8886C116.905 49.9192 116.974 49.965 117.032 50.0232C117.091 50.0814 117.136 50.1507 117.167 50.2271C117.198 50.3035 117.212 50.3852 117.211 50.4675C117.226 50.5963 117.196 50.7264 117.125 50.8351C117.054 50.9438 116.947 51.0242 116.823 51.0622ZM116.159 50.7856H116.561C116.6 50.7896 116.64 50.785 116.678 50.7721C116.716 50.7591 116.751 50.7381 116.78 50.7105C116.808 50.6829 116.831 50.6493 116.846 50.6121C116.861 50.575 116.867 50.5351 116.865 50.4951C116.865 50.4558 116.857 50.4169 116.841 50.3807C116.826 50.3445 116.803 50.3119 116.775 50.2847C116.746 50.2576 116.713 50.2365 116.676 50.2227C116.639 50.209 116.6 50.2028 116.561 50.2047H116.159V50.7856Z" fill="#231F20"/>
<defs>
<radialGradient id="paint0_radial" cx="0" cy="0" r="1" gradientUnits="userSpaceOnUse" gradientTransform="translate(32.3477 20.6908) scale(18.9752)">
<stop offset="0.49" stop-color="white"/>
<stop offset="0.62" stop-color="#E2E2E2"/>
<stop offset="0.88" stop-color="#999999"/>
<stop offset="1" stop-color="#777777"/>
</radialGradient>
<radialGradient id="paint1_radial" cx="0" cy="0" r="1" gradientUnits="userSpaceOnUse" gradientTransform="translate(40.4357 8.66353) rotate(2.2605) scale(23.9313 18.2597)">
<stop offset="0.56" stop-color="#F69521"/>
<stop offset="0.62" stop-color="#E87225"/>
<stop offset="0.68" stop-color="#DC5628"/>
<stop offset="0.74" stop-color="#D3402A"/>
<stop offset="0.81" stop-color="#CD312C"/>
<stop offset="0.89" stop-color="#C9282D"/>
<stop offset="1" stop-color="#C8252D"/>
</radialGradient>
<radialGradient id="paint2_radial" cx="0" cy="0" r="1" gradientUnits="userSpaceOnUse" gradientTransform="translate(40.4358 8.66353) rotate(2.2605) scale(23.9313 18.2597)">
<stop offset="0.56" stop-color="#FDD106"/>
<stop offset="0.59" stop-color="#FCC80A"/>
<stop offset="0.67" stop-color="#FAB214"/>
<stop offset="0.75" stop-color="#F8A31B"/>
<stop offset="0.85" stop-color="#F79A20"/>
<stop offset="1" stop-color="#F79721"/>
</radialGradient>
<radialGradient id="paint3_radial" cx="0" cy="0" r="1" gradientUnits="userSpaceOnUse" gradientTransform="translate(40.4357 8.66353) rotate(2.2605) scale(23.9313 18.2597)">
<stop offset="0.56" stop-color="#BDD631"/>
<stop offset="0.59" stop-color="#A1CF36"/>
<stop offset="0.63" stop-color="#78C53C"/>
<stop offset="0.68" stop-color="#56BC42"/>
<stop offset="0.73" stop-color="#39B546"/>
<stop offset="0.78" stop-color="#23AF4A"/>
<stop offset="0.84" stop-color="#14AB4C"/>
<stop offset="0.9" stop-color="#0BA94E"/>
<stop offset="1" stop-color="#08A84E"/>
</radialGradient>
<radialGradient id="paint4_radial" cx="0" cy="0" r="1" gradientUnits="userSpaceOnUse" gradientTransform="translate(40.4356 8.66353) rotate(2.2605) scale(23.9313 18.2597)">
<stop offset="0.56" stop-color="#29AAE1"/>
<stop offset="0.57" stop-color="#29A5DD"/>
<stop offset="0.62" stop-color="#2A82C3"/>
<stop offset="0.68" stop-color="#2B66AD"/>
<stop offset="0.74" stop-color="#2B509D"/>
<stop offset="0.81" stop-color="#2C4191"/>
<stop offset="0.89" stop-color="#2C388A"/>
<stop offset="1" stop-color="#2C3588"/>
</radialGradient>
</defs>
</svg>
