<svg width="165" height="43" viewBox="0 0 165 43" fill="none" xmlns="http://www.w3.org/2000/svg">
<path d="M164.918 16.1481C164.921 13.5287 164.234 10.9548 162.927 8.68497C163.464 8.36771 163.921 7.93179 164.264 7.4106C164.606 6.8894 164.825 6.29673 164.903 5.67794C164.982 5.05915 164.917 4.43065 164.715 3.84053C164.514 3.25041 164.179 2.71432 163.738 2.27328C163.297 1.83224 162.761 1.49794 162.171 1.29597C161.581 1.094 160.952 1.02972 160.334 1.10803C159.715 1.18634 159.122 1.40517 158.601 1.74778C158.08 2.09039 157.644 2.5477 157.326 3.08471C153.938 1.14042 149.926 0.593672 146.141 1.56063C142.357 2.52759 139.098 4.93204 137.058 8.26319C135.706 5.97042 133.784 4.06628 131.479 2.73578C129.174 1.40528 126.564 0.693665 123.902 0.670081C121.241 0.646497 118.619 1.31175 116.29 2.60119C113.962 3.89063 112.007 5.76042 110.615 8.02887C109.198 5.72303 107.199 3.83012 104.82 2.53985C102.441 1.24957 99.7648 0.607258 97.0592 0.677271C94.3537 0.747283 91.714 1.52716 89.4048 2.93876C87.0956 4.35035 85.198 6.34407 83.9021 8.72012C82.5728 6.28257 80.6114 4.24817 78.224 2.83078C75.8366 1.4134 73.1114 0.665391 70.335 0.665391C67.5585 0.665391 64.8334 1.4134 62.446 2.83078C60.0585 4.24817 58.0971 6.28257 56.7678 8.72012C55.4557 6.31017 53.5255 4.29307 51.1756 2.8761C48.8258 1.45913 46.141 0.693409 43.3973 0.65762C40.6535 0.621832 37.9496 1.31727 35.5636 2.67246C33.1776 4.02766 31.1955 5.99373 29.8209 8.36864C28.1112 5.4221 25.4776 3.12145 22.3282 1.82294C19.1787 0.524418 15.6889 0.300474 12.3993 1.18578C9.10967 2.07109 6.20368 4.01625 4.13131 6.72008C2.05893 9.42391 0.935791 12.7355 0.935791 16.1422C0.935791 19.5489 2.05893 22.8605 4.13131 25.5644C6.20368 28.2682 9.10967 30.2134 12.3993 31.0987C15.6889 31.984 19.1787 31.76 22.3282 30.4615C25.4776 29.163 28.1112 26.8623 29.8209 23.9158C31.1945 26.2913 33.1758 28.2582 35.5612 29.6144C37.9466 30.9706 40.6501 31.6672 43.3938 31.6326C46.1376 31.598 48.8227 30.8335 51.1731 29.4175C53.5236 28.0016 55.4546 25.9854 56.7678 23.576C58.0971 26.0136 60.0585 28.048 62.446 29.4654C64.8334 30.8828 67.5585 31.6308 70.335 31.6308C73.1114 31.6308 75.8366 30.8828 78.224 29.4654C80.6114 28.048 82.5728 26.0136 83.9021 23.576C84.9852 25.5502 86.4891 27.2621 88.3074 28.5905H87.9442C87.2427 28.6435 86.5869 28.9585 86.1071 29.473C85.6273 29.9875 85.3588 30.6637 85.3549 31.3672V39.955C85.3549 40.6977 85.6499 41.4099 86.1751 41.935C86.7002 42.4602 87.4124 42.7552 88.1551 42.7552H160.701C161.068 42.7552 161.431 42.6827 161.77 42.5418C162.11 42.4009 162.417 42.1945 162.677 41.9343C162.936 41.6742 163.141 41.3654 163.28 41.0257C163.42 40.6861 163.491 40.3222 163.489 39.955V31.3672C163.489 30.6277 163.195 29.9184 162.672 29.3955C162.149 28.8726 161.44 28.5788 160.701 28.5788H158.357C160.379 27.1961 162.033 25.3414 163.176 23.1754C164.32 21.0094 164.918 18.5973 164.918 16.1481ZM110.615 24.2673C111.674 25.9493 113.041 27.4161 114.645 28.5905H106.631C108.218 27.4121 109.57 25.9455 110.615 24.2673ZM132.875 28.5788C134.544 27.355 135.95 25.8093 137.011 24.033C138.141 25.8389 139.638 27.3875 141.404 28.5788H132.875Z" fill="white"/>
<path d="M160.279 31.3674H88.1321V39.5452H160.279V31.3674Z" fill="white"/>
<path d="M16.4768 28.6727C23.3939 28.6727 29.0013 23.0653 29.0013 16.1483C29.0013 9.23124 23.3939 3.62386 16.4768 3.62386C9.55977 3.62386 3.95239 9.23124 3.95239 16.1483C3.95239 23.0653 9.55977 28.6727 16.4768 28.6727Z" fill="white"/>
<path d="M16.4768 29.0945C13.9114 29.1061 11.4003 28.3552 9.26235 26.9371C7.1244 25.519 5.45598 23.4977 4.46886 21.1297C3.48174 18.7617 3.22043 16.1538 3.71809 13.6371C4.21575 11.1203 5.44995 8.80815 7.26403 6.99407C9.07811 5.17999 11.3903 3.94579 13.907 3.44813C16.4238 2.95047 19.0317 3.21178 21.3997 4.1989C23.7677 5.18602 25.789 6.85444 27.2071 8.99239C28.6251 11.1303 29.376 13.6414 29.3645 16.2069C29.343 19.6183 27.9783 22.8838 25.566 25.296C23.1537 27.7083 19.8882 29.073 16.4768 29.0945ZM16.4768 4.03392C14.0803 4.0316 11.737 4.74013 9.74326 6.06986C7.74952 7.3996 6.19497 9.2908 5.27626 11.5042C4.35756 13.7176 4.11598 16.1538 4.58209 18.5045C5.0482 20.8552 6.20106 23.0149 7.89482 24.7103C9.58858 26.4057 11.7471 27.5606 14.0974 28.029C16.4477 28.4974 18.8841 28.2582 21.0984 27.3416C23.3127 26.4251 25.2054 24.8724 26.537 22.8799C27.8687 20.8875 28.5795 18.5448 28.5795 16.1483C28.5764 12.9383 27.3007 9.86058 25.032 7.5897C22.7633 5.31882 19.6868 4.04012 16.4768 4.03392Z" fill="#231F20"/>
<path d="M55.7137 16.1483C55.7137 18.6249 54.9794 21.0459 53.6037 23.1053C52.228 25.1647 50.2727 26.77 47.9848 27.7182C45.697 28.6665 43.1793 28.9152 40.7501 28.4329C38.321 27.9506 36.0893 26.7589 34.3373 25.0085C32.5852 23.2581 31.3915 21.0276 30.9069 18.5989C30.4223 16.1701 30.6687 13.6523 31.6148 11.3635C32.561 9.07477 34.1644 7.11791 36.2225 5.7403C38.2806 4.36269 40.7009 3.62618 43.1775 3.62386C44.8232 3.62232 46.4531 3.94514 47.974 4.57386C49.4949 5.20258 50.877 6.12488 52.0412 7.28804C53.2054 8.45119 54.129 9.8324 54.7592 11.3527C55.3893 12.873 55.7137 14.5026 55.7137 16.1483Z" fill="white"/>
<path d="M43.1778 29.0945C40.6148 29.0945 38.1094 28.3337 35.9792 26.9085C33.8489 25.4834 32.1897 23.458 31.2115 21.089C30.2334 18.7199 29.9805 16.1139 30.4848 13.601C30.9891 11.0881 32.2279 8.78141 34.0443 6.9732C35.8608 5.165 38.173 3.93663 40.6882 3.44373C43.2034 2.95084 45.8082 3.21559 48.1728 4.20445C50.5374 5.1933 52.5552 6.86176 53.9707 8.99845C55.3862 11.1351 56.1356 13.6439 56.124 16.2069C56.1054 19.6293 54.7336 22.9054 52.3081 25.32C49.8826 27.7345 46.6003 29.0915 43.1778 29.0945ZM43.1778 4.03392C40.7823 4.03623 38.4412 4.7487 36.4506 6.08125C34.4599 7.4138 32.909 9.30662 31.9939 11.5204C31.0788 13.7343 30.8406 16.1697 31.3093 18.5189C31.7781 20.868 32.9328 23.0255 34.6275 24.7186C36.3222 26.4116 38.4808 27.5643 40.8304 28.0307C43.18 28.4972 45.6152 28.2566 47.8282 27.3394C50.0411 26.4221 51.9324 24.8694 53.263 22.8775C54.5937 20.8855 55.3039 18.5438 55.3039 16.1483C55.3008 12.9343 54.0218 9.85297 51.7481 7.58142C49.4743 5.30987 46.3918 4.03391 43.1778 4.03392Z" fill="#231F20"/>
<path d="M70.3355 28.6727C77.2525 28.6727 82.8599 23.0653 82.8599 16.1483C82.8599 9.23124 77.2525 3.62386 70.3355 3.62386C63.4184 3.62386 57.811 9.23124 57.811 16.1483C57.811 23.0653 63.4184 28.6727 70.3355 28.6727Z" fill="white"/>
<path d="M70.3355 29.0945C67.77 29.1061 65.2589 28.3552 63.121 26.9371C60.983 25.519 59.3146 23.4977 58.3275 21.1297C57.3404 18.7617 57.0791 16.1538 57.5767 13.6371C58.0744 11.1203 59.3086 8.80815 61.1227 6.99407C62.9368 5.17999 65.2489 3.94579 67.7657 3.44813C70.2824 2.95047 72.8903 3.21178 75.2583 4.1989C77.6263 5.18602 79.6476 6.85444 81.0657 8.99239C82.4838 11.1303 83.2347 13.6414 83.2231 16.2069C83.2016 19.6183 81.8369 22.8838 79.4246 25.296C77.0124 27.7083 73.7469 29.073 70.3355 29.0945ZM70.3355 4.03392C67.939 4.0316 65.5956 4.74013 63.6019 6.06986C61.6082 7.3996 60.0536 9.2908 59.1349 11.5042C58.2162 13.7176 57.9746 16.1538 58.4407 18.5045C58.9068 20.8552 60.0597 23.0149 61.7535 24.7103C63.4472 26.4057 65.6058 27.5606 67.9561 28.029C70.3063 28.4974 72.7427 28.2582 74.957 27.3416C77.1713 26.4251 79.064 24.8724 80.3957 22.8799C81.7273 20.8875 82.4381 18.5448 82.4381 16.1483C82.435 12.9383 81.1593 9.86058 78.8906 7.5897C76.622 5.31882 73.5454 4.04012 70.3355 4.03392Z" fill="#231F20"/>
<path d="M109.959 16.1483C109.959 18.6269 109.224 21.0497 107.846 23.1101C106.468 25.1705 104.51 26.7758 102.219 27.7227C99.9287 28.6696 97.4087 28.9155 94.9782 28.4294C92.5478 27.9433 90.3162 26.747 88.566 24.9919C86.8159 23.2368 85.6258 21.0019 85.1465 18.57C84.6673 16.1382 84.9203 13.6189 85.8736 11.331C86.827 9.04305 88.4377 7.08944 90.502 5.71747C92.5662 4.3455 94.9912 3.61687 97.4697 3.62383C100.784 3.63622 103.959 4.96085 106.3 7.30796C108.64 9.65507 109.956 12.8336 109.959 16.1483Z" fill="white"/>
<path d="M97.4697 29.0945C94.9043 29.1061 92.3932 28.3552 90.2553 26.9371C88.1173 25.519 86.4489 23.4977 85.4618 21.1297C84.4747 18.7617 84.2133 16.1538 84.711 13.6371C85.2087 11.1203 86.4429 8.80815 88.257 6.99407C90.071 5.17999 92.3832 3.94579 94.9 3.44813C97.4167 2.95047 100.025 3.21178 102.393 4.1989C104.761 5.18602 106.782 6.85444 108.2 8.99239C109.618 11.1303 110.369 13.6414 110.357 16.2069C110.336 19.6183 108.971 22.8838 106.559 25.296C104.147 27.7083 100.881 29.073 97.4697 29.0945ZM97.4697 4.03392C95.0733 4.0316 92.7299 4.74013 90.7362 6.06986C88.7424 7.3996 87.1879 9.2908 86.2692 11.5042C85.3505 13.7176 85.1089 16.1538 85.575 18.5045C86.0411 20.8552 87.194 23.0149 88.8877 24.7103C90.5815 26.4057 92.74 27.5606 95.0903 28.029C97.4406 28.4974 99.877 28.2582 102.091 27.3416C104.306 26.4251 106.198 24.8724 107.53 22.8799C108.862 20.8875 109.572 18.5448 109.572 16.1483C109.569 12.9383 108.294 9.86058 106.025 7.5897C103.756 5.31882 100.68 4.04012 97.4697 4.03392Z" fill="#231F20"/>
<path d="M136.297 16.1483C136.297 18.6254 135.562 21.0469 134.186 23.1065C132.81 25.1661 130.854 26.7714 128.565 27.7194C126.277 28.6673 123.758 28.9153 121.329 28.4321C118.899 27.9488 116.668 26.756 114.916 25.0044C113.165 23.2528 111.972 21.0212 111.488 18.5917C111.005 16.1622 111.253 13.6439 112.201 11.3554C113.149 9.06686 114.754 7.11081 116.814 5.7346C118.874 4.3584 121.295 3.62386 123.772 3.62386C127.093 3.62696 130.277 4.94749 132.625 7.2956C134.973 9.64372 136.294 12.8276 136.297 16.1483Z" fill="white"/>
<path d="M123.772 29.0945C121.207 29.1061 118.696 28.3552 116.558 26.9371C114.42 25.519 112.751 23.4977 111.764 21.1297C110.777 18.7617 110.516 16.1538 111.013 13.6371C111.511 11.1203 112.745 8.80815 114.559 6.99407C116.374 5.17999 118.686 3.94579 121.202 3.44813C123.719 2.95047 126.327 3.21178 128.695 4.1989C131.063 5.18602 133.084 6.85444 134.502 8.99239C135.921 11.1303 136.671 13.6414 136.66 16.2069C136.638 19.6183 135.274 22.8838 132.861 25.296C130.449 27.7083 127.184 29.073 123.772 29.0945ZM123.772 4.03392C121.376 4.0316 119.032 4.74013 117.039 6.06986C115.045 7.3996 113.49 9.2908 112.572 11.5042C111.653 13.7176 111.411 16.1538 111.877 18.5045C112.344 20.8552 113.496 23.0149 115.19 24.7103C116.884 26.4057 119.043 27.5606 121.393 28.029C123.743 28.4974 126.179 28.2582 128.394 27.3416C130.608 26.4251 132.501 24.8724 133.832 22.8799C135.164 20.8875 135.875 18.5448 135.875 16.1483C135.872 12.9383 134.596 9.86058 132.327 7.5897C130.059 5.31882 126.982 4.04012 123.772 4.03392Z" fill="#231F20"/>
<path d="M162.388 16.1483C162.388 18.6254 161.654 21.0469 160.277 23.1065C158.901 25.1661 156.945 26.7714 154.657 27.7194C152.368 28.6673 149.85 28.9153 147.42 28.4321C144.991 27.9488 142.759 26.756 141.008 25.0044C139.256 23.2528 138.063 21.0212 137.58 18.5917C137.097 16.1622 137.345 13.6439 138.293 11.3554C139.241 9.06686 140.846 7.11081 142.906 5.7346C144.965 4.3584 147.387 3.62386 149.864 3.62386C153.185 3.62696 156.368 4.94749 158.716 7.2956C161.065 9.64372 162.385 12.8276 162.388 16.1483Z" fill="#E31837"/>
<path d="M13.8877 23.5294C13.173 23.5294 12.4818 23.5294 11.7319 23.5294H11.4156V23.3654C10.4549 15.8671 11.0407 11.954 11.814 8.8375V8.70862H11.9545C13.374 8.54784 14.8031 8.48911 16.2309 8.53288H17.9649C21.7726 8.60318 24.2212 10.6066 24.3384 13.7348C24.3922 14.3695 24.3161 15.0086 24.1147 15.6129C23.9132 16.2172 23.5907 16.7741 23.1668 17.2496C22.4933 17.8537 21.7059 18.3172 20.8508 18.613C19.9958 18.9087 19.0903 19.0307 18.1875 18.9719H15.9849C15.9849 20.3895 15.9849 21.8423 16.0552 23.2717V23.4591H15.8794C15.1765 23.506 14.5438 23.5294 13.8877 23.5294ZM16.0434 12.1531C16.0434 12.5632 16.0434 13.0084 16.0434 13.4536C16.0434 13.8988 16.0434 14.6252 16.0434 15.1876H17.754C18.0396 15.1981 18.3244 15.1517 18.5919 15.0512C18.8594 14.9506 19.1043 14.7978 19.3122 14.6018C19.451 14.4661 19.5609 14.3038 19.6354 14.1247C19.7098 13.9455 19.7474 13.7531 19.7457 13.5591C19.7457 12.3172 17.9414 12.1883 17.1916 12.2L16.0434 12.1531Z" fill="#231F20"/>
<path d="M43.0956 23.5294C42.0726 23.5376 41.0585 23.3397 40.1137 22.9474C39.1689 22.5551 38.3128 21.9764 37.5966 21.2459C36.8803 20.5155 36.3186 19.6482 35.9449 18.6959C35.5712 17.7435 35.3933 16.7257 35.4216 15.7031C35.4364 14.1615 35.9152 12.6601 36.7956 11.3945C37.676 10.1289 38.9171 9.15786 40.3574 8.60782C41.7976 8.05779 43.37 7.95428 44.8699 8.3108C46.3698 8.66732 47.7275 9.46732 48.7662 10.6066C50.0344 12.0183 50.75 13.8407 50.7813 15.7382C50.7953 16.7563 50.6068 17.7671 50.2268 18.7118C49.8469 19.6565 49.283 20.5162 48.5679 21.2411C47.8528 21.966 47.0008 22.5416 46.0614 22.9344C45.122 23.3272 44.1139 23.5295 43.0956 23.5294ZM43.0956 11.9774H43.0605C41.1625 11.9774 40.483 13.9222 40.483 15.7382C40.483 16.6521 40.6704 19.6396 43.0956 19.6514C45.5208 19.6631 45.7083 17.191 45.72 15.7382C45.7792 14.5902 45.3979 13.4629 44.6539 12.5866C44.26 12.1989 43.7303 11.9803 43.1776 11.9774H43.0956Z" fill="#231F20"/>
<path d="M67.2891 23.5176H65.3676H65.2622V23.4239C62.3683 17.437 61.4896 12.8795 62.4855 9.11862V8.97803H62.6261C63.6923 8.97803 64.1023 8.97803 64.6178 8.97803H65.9769V9.16549C65.8219 11.7212 66.0349 14.2858 66.6095 16.7809C66.9239 15.2586 67.3149 13.7531 67.7811 12.2702C68.0741 11.2392 68.3787 10.1848 68.6599 9.02489V8.89602H68.7887C69.9592 8.82381 71.133 8.82381 72.3035 8.89602H72.4324V9.02489C72.655 9.93874 72.8776 10.8057 73.0885 11.6259C73.5337 13.3481 73.9672 14.9766 74.2601 16.7809C74.8867 14.2935 75.1472 11.7281 75.0334 9.16549V8.93116H75.9355C77.1071 8.93116 77.3883 8.93116 78.5599 9.00146H78.7005V9.14205C79.5323 12.9263 78.5599 17.9525 75.9707 23.3067V23.4122H75.8652C75.1623 23.4122 74.5647 23.4122 73.9906 23.4122C73.4166 23.4122 72.6667 23.4122 71.9286 23.4122H71.7646V23.2364C71.4951 20.6355 70.9679 17.9525 70.4524 15.3515C69.9369 17.9525 69.4214 20.6355 69.1636 23.2364V23.4005H68.9528L67.2891 23.5176Z" fill="#231F20"/>
<path d="M98.1609 23.5294C96.3146 23.5222 94.4709 23.3891 92.6427 23.1311H92.5021V23.0022C91.4586 18.4173 91.4586 13.6567 92.5021 9.07182V8.93123H92.6427C96.0511 8.41959 99.5153 8.39986 102.929 8.87265H103.046V8.98981C103.449 10.0206 103.751 11.0878 103.949 12.1766V12.4109H103.714L101.371 12.3523C99.8129 12.3523 98.3366 12.2703 96.8136 12.2937C96.8136 12.8561 96.8136 13.4653 96.8136 13.9808C98.7584 13.9808 100.715 13.9808 102.672 13.9808H102.929V14.1683C102.929 15.2462 102.929 16.3592 102.929 17.4839V17.6714H102.742C100.809 17.6714 98.8521 17.73 96.8839 17.6714C96.8839 18.3041 96.8839 18.9367 96.8839 19.5694C99.2271 19.5694 101.57 19.5694 103.972 19.3702H104.195V19.5928C104.135 20.7226 103.918 21.8386 103.55 22.9084V23.0139H103.433C101.689 23.3025 99.9278 23.4747 98.1609 23.5294Z" fill="#231F20"/>
<path d="M121.535 23.5294C120.439 23.5304 119.345 23.4363 118.266 23.2482H118.149V23.1428C116.783 18.464 116.91 13.4758 118.512 8.87263V8.76719H118.629C120.224 8.47593 121.847 8.35809 123.468 8.4157H124.264C128.388 8.50943 130.509 10.0559 130.778 13.1021C130.853 13.8085 130.69 14.5196 130.314 15.1224C129.938 15.7253 129.372 16.1853 128.705 16.4295C130.04 16.945 131.048 17.6011 130.872 20.2489C130.816 20.8122 130.726 21.3716 130.603 21.9243C130.558 22.0933 130.526 22.2657 130.509 22.4398H130.778L130.638 23.2716H130.497C129.529 23.3931 128.555 23.4635 127.58 23.4825C127.146 23.4825 126.701 23.4825 126.209 23.5411H126.057V23.3888C125.932 22.5946 125.9 21.7885 125.963 20.987C126.097 20.2326 125.933 19.4558 125.506 18.8195C125.244 18.6128 124.943 18.4598 124.621 18.3693C124.3 18.2789 123.963 18.2527 123.632 18.2923H122.355V18.3509C122.355 19.9911 122.355 21.6783 122.484 23.3419V23.5294H121.511H121.535ZM122.39 12.3054C122.39 13.2193 122.39 14.0745 122.39 14.8947H124.112C124.762 14.9723 125.418 14.8052 125.951 14.426C126.043 14.325 126.113 14.2064 126.157 14.0775C126.201 13.9487 126.219 13.8121 126.209 13.6762C126.209 12.7975 125.541 12.282 124.452 12.282C123.761 12.2703 123.069 12.282 122.39 12.3054Z" fill="#231F20"/>
<path d="M139.987 20.2255C139.126 17.3758 139.126 14.335 139.987 11.4853C140.796 11.4853 141.592 11.3916 142.33 11.3682C143.502 11.3682 144.205 11.7899 144.006 13.6294C143.957 14.374 143.664 15.0819 143.174 15.6445C143.501 15.8969 143.761 16.2251 143.933 16.6007C144.104 16.9763 144.181 17.388 144.158 17.8003C144.322 19.8857 143.678 20.5652 142.377 20.4598C141.592 20.3895 140.807 20.3192 139.987 20.2255ZM141.159 13.4888C141.077 13.9808 141.018 14.4846 140.983 14.9767H141.733C142.084 14.9767 142.354 14.7189 142.401 14.18C142.448 13.6411 142.155 13.4653 141.78 13.4653L141.159 13.4888ZM140.971 16.6169C140.989 17.1623 141.04 17.7062 141.124 18.2455H141.885C142.319 18.2455 142.612 18.14 142.553 17.4488C142.494 16.7575 142.084 16.5818 141.51 16.5584L140.971 16.6169Z" fill="white"/>
<path d="M144.58 20.2958C144.812 17.1872 145.606 14.1465 146.923 11.3213H149.055C149.618 14.344 150.66 17.3785 151.399 20.4012H149.313L148.997 19.2296H146.829C146.829 19.6162 146.759 20.0146 146.736 20.4012L144.58 20.2958ZM147.708 14.0394C147.427 15.1173 147.181 16.1952 146.993 17.273H148.423C148.153 16.1952 147.907 15.1173 147.708 14.0394Z" fill="white"/>
<path d="M151.984 20.4247C152.148 17.4081 152.148 14.3848 151.984 11.3682H153.929C154.234 13.6553 154.304 15.9675 154.14 18.2689C155.089 18.2689 156.026 18.2689 156.975 18.2689C156.882 18.9562 156.753 19.6475 156.589 20.3426C155.054 20.3778 153.519 20.4129 151.984 20.4247Z" fill="white"/>
<path d="M157.139 20.2841C157.772 17.3774 157.772 14.3686 157.139 11.4619C157.631 11.4619 158.241 11.5556 158.733 11.5908C159.309 13.7221 159.409 15.954 159.026 18.1283C159.752 18.1283 160.338 18.1283 161.064 18.1283C160.888 18.8099 160.657 19.476 160.373 20.12C159.225 20.2138 158.323 20.2255 157.139 20.2841Z" fill="white"/>
<path d="M162.388 5.18206C162.39 5.38767 162.351 5.59156 162.273 5.78197C162.195 5.97237 162.081 6.14554 161.936 6.29148C161.791 6.43741 161.619 6.55324 161.429 6.63228C161.239 6.71132 161.036 6.75201 160.83 6.75201C160.415 6.74894 160.017 6.58255 159.723 6.28879C159.429 5.99503 159.263 5.59749 159.26 5.18206C159.294 4.7906 159.473 4.42609 159.763 4.16052C160.053 3.89494 160.431 3.7476 160.824 3.7476C161.217 3.7476 161.596 3.89494 161.885 4.16052C162.175 4.42609 162.354 4.7906 162.388 5.18206ZM162.095 5.18206C162.065 4.86597 161.918 4.57254 161.683 4.35902C161.448 4.14549 161.142 4.02719 160.824 4.02719C160.507 4.02719 160.2 4.14549 159.965 4.35902C159.73 4.57254 159.583 4.86597 159.553 5.18206C159.583 5.49814 159.73 5.79157 159.965 6.0051C160.2 6.21862 160.507 6.33693 160.824 6.33693C161.142 6.33693 161.448 6.21862 161.683 6.0051C161.918 5.79157 162.065 5.49814 162.095 5.18206ZM161.158 5.3578L161.521 5.97875H161.205L160.865 5.39295H160.596V5.97875H160.338V4.35022H160.994C161.065 4.34862 161.136 4.36146 161.202 4.38798C161.268 4.4145 161.328 4.45414 161.379 4.5045C161.429 4.55487 161.469 4.61492 161.495 4.68103C161.522 4.74714 161.535 4.81794 161.533 4.88916C161.535 4.99879 161.499 5.10573 161.43 5.19136C161.362 5.27699 161.265 5.33589 161.158 5.3578ZM160.596 5.11176H160.924C160.957 5.11686 160.992 5.11459 161.024 5.10512C161.057 5.09565 161.087 5.0792 161.113 5.05691C161.138 5.03462 161.159 5.00703 161.173 4.97604C161.187 4.94505 161.194 4.91141 161.193 4.87744C161.193 4.84306 161.186 4.80903 161.172 4.77754C161.159 4.74605 161.138 4.71781 161.113 4.69463C161.088 4.67145 161.058 4.65384 161.025 4.64295C160.992 4.63206 160.958 4.62813 160.924 4.6314H160.596V5.11176Z" fill="#231F20"/>
<path d="M136.906 33.4763C136.713 33.1892 136.451 32.9555 136.144 32.7968C135.927 32.6911 135.693 32.6237 135.453 32.5976C135.088 32.5493 134.72 32.5297 134.352 32.539H132.747V39.1234H133.496V36.2999H134.481C134.837 36.3051 135.194 36.2816 135.547 36.2296C135.797 36.1831 136.039 36.0961 136.261 35.9718C136.544 35.8137 136.776 35.5779 136.929 35.2923C137.092 35.0155 137.177 34.6997 137.175 34.3785C137.169 34.0588 137.076 33.7469 136.906 33.4763ZM135.933 35.386C135.523 35.6167 135.055 35.7225 134.586 35.6907H133.496V33.1366H134.563C135.051 33.095 135.541 33.2012 135.968 33.4412C136.111 33.5563 136.224 33.7032 136.299 33.87C136.375 34.0369 136.41 34.219 136.402 34.4019C136.41 34.5876 136.369 34.7722 136.282 34.9368C136.196 35.1014 136.067 35.2402 135.91 35.3392L135.933 35.386Z" fill="black"/>
<path fill-rule="evenodd" clip-rule="evenodd" d="M142.272 38.9828H138.874V32.3984H139.612V38.3501H142.272V38.9828Z" fill="#231F20"/>
<path d="M147.708 32.3047H146.818L143.936 38.9008H144.709L145.611 36.8271H148.973L149.876 38.9008H150.661L147.708 32.3047ZM145.822 36.2413L147.239 32.9256L148.622 36.2413H145.822Z" fill="black"/>
<path fill-rule="evenodd" clip-rule="evenodd" d="M154.75 36.6748V39.1H154.011V36.6748L151.61 32.5156H152.453L154.386 35.9366L156.331 32.5156H157.151L154.75 36.6748Z" fill="#231F20"/>
<path d="M159.834 33.0077C159.732 32.833 159.587 32.6877 159.412 32.5859C159.234 32.4831 159.032 32.4289 158.827 32.4289C158.621 32.4289 158.419 32.4831 158.241 32.5859C158.066 32.6877 157.921 32.833 157.819 33.0077C157.716 33.1858 157.662 33.3878 157.662 33.5935C157.662 33.7991 157.716 34.0012 157.819 34.1793C157.921 34.3539 158.066 34.4992 158.241 34.601C158.419 34.7039 158.621 34.758 158.827 34.758C159.032 34.758 159.234 34.7039 159.412 34.601C159.587 34.4992 159.732 34.3539 159.834 34.1793C159.937 34.0012 159.991 33.7991 159.991 33.5935C159.991 33.3878 159.937 33.1858 159.834 33.0077ZM159.483 34.1793C159.4 34.27 159.298 34.342 159.185 34.3905C159.072 34.439 158.95 34.4628 158.827 34.4605C158.58 34.4574 158.345 34.3573 158.171 34.1818C157.998 34.0064 157.901 33.7697 157.901 33.5232C157.901 33.2777 157.999 33.0423 158.172 32.8687C158.346 32.6951 158.581 32.5976 158.827 32.5976C159.073 32.5976 159.31 32.6947 159.485 32.868C159.661 33.0412 159.761 33.2766 159.764 33.5232C159.775 33.6559 159.756 33.7894 159.707 33.9133C159.658 34.0373 159.581 34.1483 159.483 34.2378V34.1793ZM159.178 33.7926C159.152 33.7429 159.116 33.6991 159.073 33.6638C159.044 33.6349 159.007 33.6146 158.967 33.6052C159.064 33.5889 159.154 33.544 159.225 33.4763C159.276 33.4174 159.305 33.343 159.307 33.2654C159.309 33.2174 159.301 33.1693 159.283 33.1248C159.265 33.0803 159.237 33.0403 159.202 33.0077C159.102 32.9392 158.982 32.9062 158.862 32.9139H158.311V34.1441H158.616V33.6638C158.641 33.6655 158.666 33.6727 158.688 33.6848C158.71 33.6969 158.729 33.7137 158.745 33.7341C158.832 33.8693 158.91 34.0102 158.979 34.1558H159.342C159.237 33.9684 159.166 33.8512 159.166 33.8512L159.178 33.7926ZM158.745 33.4294H158.616V33.1248H158.756C158.817 33.1013 158.884 33.1013 158.944 33.1248C158.956 33.1589 158.956 33.1962 158.944 33.2303C158.958 33.268 158.958 33.3097 158.944 33.3474C158.894 33.4122 158.824 33.4577 158.745 33.4763V33.4294Z" fill="black"/>
<path fill-rule="evenodd" clip-rule="evenodd" d="M92.2093 35.304H92.7131C93.0064 35.3327 93.3006 35.2581 93.5449 35.0931C93.6215 35.0289 93.6825 34.948 93.7231 34.8566C93.7637 34.7653 93.7829 34.6658 93.7792 34.5659C93.7842 34.469 93.7691 34.3722 93.7348 34.2814C93.7005 34.1907 93.6478 34.108 93.58 34.0387C93.3565 33.8667 93.0756 33.787 92.7951 33.8161H92.2093V35.304ZM99.3092 35.6203C99.266 36.1294 99.3983 36.6379 99.6841 37.0614C99.8089 37.2083 99.9655 37.3248 100.142 37.402C100.319 37.4792 100.511 37.5149 100.703 37.5066C100.895 37.5147 101.086 37.4799 101.262 37.4049C101.438 37.33 101.596 37.2166 101.723 37.0731C102.008 36.6106 102.136 36.0678 102.086 35.5266C102.137 35.0456 102.021 34.5616 101.758 34.1558C101.627 34.0148 101.467 33.9041 101.289 33.8312C101.111 33.7584 100.919 33.7252 100.727 33.734C100.539 33.727 100.352 33.7623 100.18 33.8373C100.007 33.9124 99.8538 34.0252 99.731 34.1675C99.4434 34.5946 99.3111 35.1074 99.356 35.6203H99.3092ZM125.67 35.1282H126.537C126.719 35.1116 126.899 35.0802 127.076 35.0345C127.206 35.0106 127.323 34.9397 127.404 34.8353C127.491 34.7256 127.537 34.5887 127.533 34.4487C127.542 34.3567 127.528 34.2639 127.494 34.1783C127.459 34.0926 127.404 34.0166 127.334 33.9566C127.108 33.8126 126.839 33.7506 126.572 33.7809H125.67V35.1282ZM88.179 31.3674V39.9552H160.725V31.3674H88.179ZM95.2086 36.0538C94.6893 36.4684 94.0315 36.6695 93.3691 36.6162H92.1975V39.0765H90.1472V32.4687H93.5566C94.1584 32.4237 94.7543 32.6125 95.2203 32.9959C95.5928 33.4228 95.798 33.9701 95.798 34.5366C95.798 35.1031 95.5928 35.6504 95.2203 36.0772L95.2086 36.0538ZM103.773 37.4363C103.516 37.9407 103.106 38.3508 102.601 38.6079C102.03 38.903 101.392 39.0443 100.75 39.018C100.115 39.0387 99.4827 38.9187 98.8991 38.6665C98.3989 38.4037 97.9903 37.9951 97.7275 37.4949C97.4042 36.9033 97.2463 36.2355 97.2706 35.5617C97.304 34.885 97.5272 34.2314 97.9148 33.6756C98.3023 33.1199 98.8385 32.6844 99.4619 32.4192C100.085 32.1539 100.771 32.0695 101.44 32.1756C102.109 32.2818 102.735 32.5742 103.246 33.0194C103.555 33.3621 103.79 33.7646 103.937 34.2019C104.084 34.6392 104.14 35.102 104.101 35.5617C104.14 36.2148 104.015 36.8671 103.738 37.4597L103.773 37.4363ZM113.005 39.0414H110.955L109.783 34.8705L108.612 39.0414H106.632L105.155 32.4336H107.1L107.803 36.1475L108.787 32.4336H110.732L111.752 36.1475L112.455 32.4336H114.388L113.005 39.0414ZM121.827 39.0414H116.204V32.4453H121.675V33.8629H118.231V34.9174H121.417V36.2647H118.231V37.5652H121.745L121.827 39.0414ZM127.849 39.0414L126.76 37.0145C126.671 36.8194 126.543 36.6441 126.385 36.499C126.238 36.3951 126.061 36.3416 125.881 36.3467H125.705V39.0414H123.643V32.4453H127.064C127.554 32.4236 128.045 32.479 128.517 32.6093C128.845 32.7145 129.129 32.9244 129.326 33.2068C129.512 33.5096 129.617 33.8556 129.629 34.211C129.641 34.5663 129.561 34.9187 129.396 35.2337C129.237 35.5013 129.016 35.7265 128.752 35.8898C128.524 36.0116 128.279 36.0985 128.025 36.1475C128.215 36.2042 128.397 36.287 128.564 36.3936C128.688 36.4921 128.798 36.6063 128.892 36.7333C129 36.8643 129.094 37.0055 129.173 37.1551L130.169 39.0765L127.849 39.0414ZM160.315 39.5218H131.048V31.7775H160.338L160.315 39.5218Z" fill="black"/>
<path d="M136.906 33.4763C136.713 33.1892 136.451 32.9555 136.144 32.7968C135.927 32.6911 135.693 32.6237 135.453 32.5976C135.088 32.5493 134.72 32.5297 134.352 32.539H132.747V39.1234H133.496V36.2999H134.481C134.837 36.3051 135.194 36.2816 135.547 36.2296C135.797 36.1831 136.039 36.0961 136.261 35.9718C136.544 35.8137 136.776 35.5779 136.929 35.2923C137.092 35.0155 137.177 34.6997 137.175 34.3785C137.169 34.0588 137.076 33.7469 136.906 33.4763ZM135.933 35.386C135.523 35.6167 135.055 35.7225 134.586 35.6907H133.496V33.1366H134.563C135.051 33.095 135.541 33.2012 135.968 33.4412C136.111 33.5563 136.224 33.7032 136.299 33.87C136.375 34.0369 136.41 34.219 136.402 34.4019C136.41 34.5876 136.369 34.7722 136.282 34.9368C136.196 35.1014 136.067 35.2402 135.91 35.3392L135.933 35.386Z" fill="black"/>
<path fill-rule="evenodd" clip-rule="evenodd" d="M142.272 38.9828H138.874V32.3984H139.612V38.3501H142.272V38.9828Z" fill="#231F20"/>
<path d="M147.708 32.3047H146.818L143.936 38.9008H144.709L145.611 36.8271H148.973L149.876 38.9008H150.661L147.708 32.3047ZM145.822 36.2413L147.239 32.9256L148.622 36.2413H145.822Z" fill="black"/>
<path fill-rule="evenodd" clip-rule="evenodd" d="M154.75 36.6748V39.1H154.011V36.6748L151.61 32.5156H152.453L154.386 35.9366L156.331 32.5156H157.151L154.75 36.6748Z" fill="#231F20"/>
<path d="M159.834 33.0077C159.732 32.833 159.587 32.6877 159.412 32.5859C159.234 32.4831 159.032 32.4289 158.827 32.4289C158.621 32.4289 158.419 32.4831 158.241 32.5859C158.066 32.6877 157.921 32.833 157.819 33.0077C157.716 33.1858 157.662 33.3878 157.662 33.5935C157.662 33.7991 157.716 34.0012 157.819 34.1793C157.921 34.3539 158.066 34.4992 158.241 34.601C158.419 34.7039 158.621 34.758 158.827 34.758C159.032 34.758 159.234 34.7039 159.412 34.601C159.587 34.4992 159.732 34.3539 159.834 34.1793C159.937 34.0012 159.991 33.7991 159.991 33.5935C159.991 33.3878 159.937 33.1858 159.834 33.0077ZM159.483 34.1793C159.4 34.27 159.298 34.342 159.185 34.3905C159.072 34.439 158.95 34.4628 158.827 34.4605C158.58 34.4574 158.345 34.3573 158.171 34.1818C157.998 34.0064 157.901 33.7697 157.901 33.5232C157.901 33.2777 157.999 33.0423 158.172 32.8687C158.346 32.6951 158.581 32.5976 158.827 32.5976C159.073 32.5976 159.31 32.6947 159.485 32.868C159.661 33.0412 159.761 33.2766 159.764 33.5232C159.775 33.6559 159.756 33.7894 159.707 33.9133C159.658 34.0373 159.581 34.1483 159.483 34.2378V34.1793ZM159.178 33.7926C159.152 33.7429 159.116 33.6991 159.073 33.6638C159.044 33.6349 159.007 33.6146 158.967 33.6052C159.064 33.5889 159.154 33.544 159.225 33.4763C159.276 33.4174 159.305 33.343 159.307 33.2654C159.309 33.2174 159.301 33.1693 159.283 33.1248C159.265 33.0803 159.237 33.0403 159.202 33.0077C159.102 32.9392 158.982 32.9062 158.862 32.9139H158.311V34.1441H158.616V33.6638C158.641 33.6655 158.666 33.6727 158.688 33.6848C158.71 33.6969 158.729 33.7137 158.745 33.7341C158.832 33.8693 158.91 34.0102 158.979 34.1558H159.342C159.237 33.9684 159.166 33.8512 159.166 33.8512L159.178 33.7926ZM158.745 33.4294H158.616V33.1248H158.756C158.817 33.1013 158.884 33.1013 158.944 33.1248C158.956 33.1589 158.956 33.1962 158.944 33.2303C158.958 33.268 158.958 33.3097 158.944 33.3474C158.894 33.4122 158.824 33.4577 158.745 33.4763V33.4294Z" fill="black"/>
<path fill-rule="evenodd" clip-rule="evenodd" d="M92.2093 35.304H92.7131C93.0064 35.3327 93.3006 35.2581 93.5449 35.0931C93.6215 35.0289 93.6825 34.948 93.7231 34.8566C93.7637 34.7653 93.7829 34.6658 93.7792 34.5659C93.7842 34.469 93.7691 34.3722 93.7348 34.2814C93.7005 34.1907 93.6478 34.108 93.58 34.0387C93.3565 33.8667 93.0756 33.787 92.7951 33.8161H92.2093V35.304ZM99.3092 35.6203C99.266 36.1294 99.3983 36.6379 99.6841 37.0614C99.8089 37.2083 99.9655 37.3248 100.142 37.402C100.319 37.4792 100.511 37.5149 100.703 37.5066C100.895 37.5147 101.086 37.4799 101.262 37.4049C101.438 37.33 101.596 37.2166 101.723 37.0731C102.008 36.6106 102.136 36.0678 102.086 35.5266C102.137 35.0456 102.021 34.5616 101.758 34.1558C101.627 34.0148 101.467 33.9041 101.289 33.8312C101.111 33.7584 100.919 33.7252 100.727 33.734C100.539 33.727 100.352 33.7623 100.18 33.8373C100.007 33.9124 99.8538 34.0252 99.731 34.1675C99.4434 34.5946 99.3111 35.1074 99.356 35.6203H99.3092ZM125.67 35.1282H126.537C126.719 35.1116 126.899 35.0802 127.076 35.0345C127.206 35.0106 127.323 34.9397 127.404 34.8353C127.491 34.7256 127.537 34.5887 127.533 34.4487C127.542 34.3567 127.528 34.2639 127.494 34.1783C127.459 34.0926 127.404 34.0166 127.334 33.9566C127.108 33.8126 126.839 33.7506 126.572 33.7809H125.67V35.1282ZM88.179 31.3674V39.9552H160.725V31.3674H88.179ZM95.2086 36.0538C94.6893 36.4684 94.0315 36.6695 93.3691 36.6162H92.1975V39.0765H90.1472V32.4687H93.5566C94.1584 32.4237 94.7543 32.6125 95.2203 32.9959C95.5928 33.4228 95.798 33.9701 95.798 34.5366C95.798 35.1031 95.5928 35.6504 95.2203 36.0772L95.2086 36.0538ZM103.773 37.4363C103.516 37.9407 103.106 38.3508 102.601 38.6079C102.03 38.903 101.392 39.0443 100.75 39.018C100.115 39.0387 99.4827 38.9187 98.8991 38.6665C98.3989 38.4037 97.9903 37.9951 97.7275 37.4949C97.4042 36.9033 97.2463 36.2355 97.2706 35.5617C97.304 34.885 97.5272 34.2314 97.9148 33.6756C98.3023 33.1199 98.8385 32.6844 99.4619 32.4192C100.085 32.1539 100.771 32.0695 101.44 32.1756C102.109 32.2818 102.735 32.5742 103.246 33.0194C103.555 33.3621 103.79 33.7646 103.937 34.2019C104.084 34.6392 104.14 35.102 104.101 35.5617C104.14 36.2148 104.015 36.8671 103.738 37.4597L103.773 37.4363ZM113.005 39.0414H110.955L109.783 34.8705L108.612 39.0414H106.632L105.155 32.4336H107.1L107.803 36.1475L108.787 32.4336H110.732L111.752 36.1475L112.455 32.4336H114.388L113.005 39.0414ZM121.827 39.0414H116.204V32.4453H121.675V33.8629H118.231V34.9174H121.417V36.2647H118.231V37.5652H121.745L121.827 39.0414ZM127.849 39.0414L126.76 37.0145C126.671 36.8194 126.543 36.6441 126.385 36.499C126.238 36.3951 126.061 36.3416 125.881 36.3467H125.705V39.0414H123.643V32.4453H127.064C127.554 32.4236 128.045 32.479 128.517 32.6093C128.845 32.7145 129.129 32.9244 129.326 33.2068C129.512 33.5096 129.617 33.8556 129.629 34.211C129.641 34.5663 129.561 34.9187 129.396 35.2337C129.237 35.5013 129.016 35.7265 128.752 35.8898C128.524 36.0116 128.279 36.0985 128.025 36.1475C128.215 36.2042 128.397 36.287 128.564 36.3936C128.688 36.4921 128.798 36.6063 128.892 36.7333C129 36.8643 129.094 37.0055 129.173 37.1551L130.169 39.0765L127.849 39.0414ZM160.315 39.5218H131.048V31.7775H160.338L160.315 39.5218Z" fill="black"/>
<path d="M136.906 33.4763C136.713 33.1892 136.451 32.9555 136.144 32.7968C135.927 32.6911 135.693 32.6237 135.453 32.5976C135.088 32.5493 134.72 32.5297 134.352 32.539H132.747V39.1234H133.496V36.2999H134.481C134.837 36.3051 135.194 36.2816 135.547 36.2296C135.797 36.1831 136.039 36.0961 136.261 35.9718C136.544 35.8137 136.776 35.5779 136.929 35.2923C137.092 35.0155 137.177 34.6997 137.175 34.3785C137.169 34.0588 137.076 33.7469 136.906 33.4763ZM135.933 35.386C135.523 35.6167 135.055 35.7225 134.586 35.6907H133.496V33.1366H134.563C135.051 33.095 135.541 33.2012 135.968 33.4412C136.111 33.5563 136.224 33.7032 136.299 33.87C136.375 34.0369 136.41 34.219 136.402 34.4019C136.41 34.5876 136.369 34.7722 136.282 34.9368C136.196 35.1014 136.067 35.2402 135.91 35.3392L135.933 35.386Z" fill="black"/>
<path fill-rule="evenodd" clip-rule="evenodd" d="M142.272 38.9828H138.874V32.3984H139.612V38.3501H142.272V38.9828Z" fill="#231F20"/>
<path d="M147.708 32.3047H146.818L143.936 38.9008H144.709L145.611 36.8271H148.973L149.876 38.9008H150.661L147.708 32.3047ZM145.822 36.2413L147.239 32.9256L148.622 36.2413H145.822Z" fill="black"/>
<path fill-rule="evenodd" clip-rule="evenodd" d="M154.75 36.6748V39.1H154.011V36.6748L151.61 32.5156H152.453L154.386 35.9366L156.331 32.5156H157.151L154.75 36.6748Z" fill="#231F20"/>
<path d="M159.834 33.0077C159.732 32.833 159.587 32.6877 159.412 32.5859C159.234 32.4831 159.032 32.4289 158.827 32.4289C158.621 32.4289 158.419 32.4831 158.241 32.5859C158.066 32.6877 157.921 32.833 157.819 33.0077C157.716 33.1858 157.662 33.3878 157.662 33.5935C157.662 33.7991 157.716 34.0012 157.819 34.1793C157.921 34.3539 158.066 34.4992 158.241 34.601C158.419 34.7039 158.621 34.758 158.827 34.758C159.032 34.758 159.234 34.7039 159.412 34.601C159.587 34.4992 159.732 34.3539 159.834 34.1793C159.937 34.0012 159.991 33.7991 159.991 33.5935C159.991 33.3878 159.937 33.1858 159.834 33.0077ZM159.483 34.1793C159.4 34.27 159.298 34.342 159.185 34.3905C159.072 34.439 158.95 34.4628 158.827 34.4605C158.58 34.4574 158.345 34.3573 158.171 34.1818C157.998 34.0064 157.901 33.7697 157.901 33.5232C157.901 33.2777 157.999 33.0423 158.172 32.8687C158.346 32.6951 158.581 32.5976 158.827 32.5976C159.073 32.5976 159.31 32.6947 159.485 32.868C159.661 33.0412 159.761 33.2766 159.764 33.5232C159.775 33.6559 159.756 33.7894 159.707 33.9133C159.658 34.0373 159.581 34.1483 159.483 34.2378V34.1793ZM159.178 33.7926C159.152 33.7429 159.116 33.6991 159.073 33.6638C159.044 33.6349 159.007 33.6146 158.967 33.6052C159.064 33.5889 159.154 33.544 159.225 33.4763C159.276 33.4174 159.305 33.343 159.307 33.2654C159.309 33.2174 159.301 33.1693 159.283 33.1248C159.265 33.0803 159.237 33.0403 159.202 33.0077C159.102 32.9392 158.982 32.9062 158.862 32.9139H158.311V34.1441H158.616V33.6638C158.641 33.6655 158.666 33.6727 158.688 33.6848C158.71 33.6969 158.729 33.7137 158.745 33.7341C158.832 33.8693 158.91 34.0102 158.979 34.1558H159.342C159.237 33.9684 159.166 33.8512 159.166 33.8512L159.178 33.7926ZM158.745 33.4294H158.616V33.1248H158.756C158.817 33.1013 158.884 33.1013 158.944 33.1248C158.956 33.1589 158.956 33.1962 158.944 33.2303C158.958 33.268 158.958 33.3097 158.944 33.3474C158.894 33.4122 158.824 33.4577 158.745 33.4763V33.4294Z" fill="black"/>
<path fill-rule="evenodd" clip-rule="evenodd" d="M92.2093 35.304H92.7131C93.0064 35.3327 93.3006 35.2581 93.5449 35.0931C93.6215 35.0289 93.6825 34.948 93.7231 34.8566C93.7637 34.7653 93.7829 34.6658 93.7792 34.5659C93.7842 34.469 93.7691 34.3722 93.7348 34.2814C93.7005 34.1907 93.6478 34.108 93.58 34.0387C93.3565 33.8667 93.0756 33.787 92.7951 33.8161H92.2093V35.304ZM99.3092 35.6203C99.266 36.1294 99.3983 36.6379 99.6841 37.0614C99.8089 37.2083 99.9655 37.3248 100.142 37.402C100.319 37.4792 100.511 37.5149 100.703 37.5066C100.895 37.5147 101.086 37.4799 101.262 37.4049C101.438 37.33 101.596 37.2166 101.723 37.0731C102.008 36.6106 102.136 36.0678 102.086 35.5266C102.137 35.0456 102.021 34.5616 101.758 34.1558C101.627 34.0148 101.467 33.9041 101.289 33.8312C101.111 33.7584 100.919 33.7252 100.727 33.734C100.539 33.727 100.352 33.7623 100.18 33.8373C100.007 33.9124 99.8538 34.0252 99.731 34.1675C99.4434 34.5946 99.3111 35.1074 99.356 35.6203H99.3092ZM125.67 35.1282H126.537C126.719 35.1116 126.899 35.0802 127.076 35.0345C127.206 35.0106 127.323 34.9397 127.404 34.8353C127.491 34.7256 127.537 34.5887 127.533 34.4487C127.542 34.3567 127.528 34.2639 127.494 34.1783C127.459 34.0926 127.404 34.0166 127.334 33.9566C127.108 33.8126 126.839 33.7506 126.572 33.7809H125.67V35.1282ZM88.179 31.3674V39.9552H160.725V31.3674H88.179ZM95.2086 36.0538C94.6893 36.4684 94.0315 36.6695 93.3691 36.6162H92.1975V39.0765H90.1472V32.4687H93.5566C94.1584 32.4237 94.7543 32.6125 95.2203 32.9959C95.5928 33.4228 95.798 33.9701 95.798 34.5366C95.798 35.1031 95.5928 35.6504 95.2203 36.0772L95.2086 36.0538ZM103.773 37.4363C103.516 37.9407 103.106 38.3508 102.601 38.6079C102.03 38.903 101.392 39.0443 100.75 39.018C100.115 39.0387 99.4827 38.9187 98.8991 38.6665C98.3989 38.4037 97.9903 37.9951 97.7275 37.4949C97.4042 36.9033 97.2463 36.2355 97.2706 35.5617C97.304 34.885 97.5272 34.2314 97.9148 33.6756C98.3023 33.1199 98.8385 32.6844 99.4619 32.4192C100.085 32.1539 100.771 32.0695 101.44 32.1756C102.109 32.2818 102.735 32.5742 103.246 33.0194C103.555 33.3621 103.79 33.7646 103.937 34.2019C104.084 34.6392 104.14 35.102 104.101 35.5617C104.14 36.2148 104.015 36.8671 103.738 37.4597L103.773 37.4363ZM113.005 39.0414H110.955L109.783 34.8705L108.612 39.0414H106.632L105.155 32.4336H107.1L107.803 36.1475L108.787 32.4336H110.732L111.752 36.1475L112.455 32.4336H114.388L113.005 39.0414ZM121.827 39.0414H116.204V32.4453H121.675V33.8629H118.231V34.9174H121.417V36.2647H118.231V37.5652H121.745L121.827 39.0414ZM127.849 39.0414L126.76 37.0145C126.671 36.8194 126.543 36.6441 126.385 36.499C126.238 36.3951 126.061 36.3416 125.881 36.3467H125.705V39.0414H123.643V32.4453H127.064C127.554 32.4236 128.045 32.479 128.517 32.6093C128.845 32.7145 129.129 32.9244 129.326 33.2068C129.512 33.5096 129.617 33.8556 129.629 34.211C129.641 34.5663 129.561 34.9187 129.396 35.2337C129.237 35.5013 129.016 35.7265 128.752 35.8898C128.524 36.0116 128.279 36.0985 128.025 36.1475C128.215 36.2042 128.397 36.287 128.564 36.3936C128.688 36.4921 128.798 36.6063 128.892 36.7333C129 36.8643 129.094 37.0055 129.173 37.1551L130.169 39.0765L127.849 39.0414ZM160.315 39.5218H131.048V31.7775H160.338L160.315 39.5218Z" fill="black"/>
</svg>
